<svg xmlns="http://www.w3.org/2000/svg" viewBox="0 0 270 122.2"><path fill="#0087C3" d="M268.8 94.4c-2.1-1.2-3.4.9-3.4.9s-2.3 3.6-10.8 3.7h-.1c.3-1.2.4-2 .4-2.3.1-.7.7-4.7-1.5-7.4-.9-1.1-2.5-2.3-5.5-2.2-3.8.1-6.6 3.4-6.6 7.5.1 3.5 2.2 6.9 6.8 8.5-1.5 4.4-4 9.7-8.1 12.3-2.7 1.7-5.7 2.1-9.3 1-2.6-.8-4.4-3.7-5.3-8.2.9-1.4 1.8-2.8 2.7-4.3 8-12.4 15-24.2 19.3-33.7 2.6-5.2 5-11.7 3.9-16.6-.8-3.4-3.2-5.5-6.7-5.9-4.5-.5-9 2.9-13.3 10.2-4.7 7.7-8.2 18.4-9.9 27-1.7 8.3-2.1 16.2-1.3 22.2-1.1 1.8-2.2 3.5-3.1 5-2.7 4.2-5.7 5.2-7.6 4.8-1.7-.4-2.9-2-3.2-4.4-1.1-7.5 4.1-18.4 4.2-18.6.6-1.2.1-2.7-1.1-3.3-1.2-.6-2.7-.1-3.3 1.2-.2.4-4.3 8.8-4.8 16.9-5.3 7.1-11.2 9.9-15.1 7.5-2-.9-7.2-7.3-2.6-17.2 6.9-15 22.8-12.4 23.5-12.3 1.4.2 2.6-.7 2.9-2 .2-1.4-.7-2.6-2-2.9-.2 0-5.1-.9-11.1.5-5.6 1.3-13.2 4.9-17.8 14.5-2.4 5.1-2.9 10.6-1.6 15.2-1.9 1.9-5.5 4.9-9 4.9-2 0-3.8-.9-5.6-2.8-2.1-2.4-2.6-8.4-1.9-15.9 6.6-4.5 13.7-12.2 19.3-21 2.9-4.6 9.5-16.1 7.9-23.5-.8-3.4-3.2-5.5-6.7-5.9-5.1-.6-10 3.8-14.8 12.9-4.7 9-8.9 22.7-10.4 34.7-3.8 2.2-7 3.2-9.5 3.6.1-3.9-.8-7.7-3-9.9-1.8-1.8-4.3-2.3-7-1.4-.1 0-.3.1-.4.2-2.6 1.5-4.1 3.9-4.1 6.6 0 3.1 1.9 6 5.2 7.8.8.4 2 1 3.6 1.3v.1c-2.7 10.1-10.5 14.2-16.4 13-7.4-1.8-8.2-8.1-7.7-13.2 1.8-16.7 14-17 14.5-17 1.4 0 2.5-1.1 2.5-2.5s-1.1-2.5-2.5-2.5c-.2 0-4.3 0-8.8 2.8-7.3 4.5-9.8 12.6-10.6 18.6-.7 5 .2 9.1 2.1 12.2-1.9 1.2-4.6 2.5-6.6 1.8-3.4-1.3-4.9-6.8-4.9-18.4 0-11-7.9-16-15.5-16.6-.6-7.1-3.1-10.4-5.4-11.9-2.3-1.5-5.1-1.7-7.5-.4-2.4 1.3-4 3.8-4 6.5 0 2.6.9 4.9 2.7 6.7 2.7 2.7 6.8 3.5 9.3 3.8 0 1.3-.1 2.8-.3 4.5-1.1 10.6-3.9 18.1-8.3 22.1-3.9 3.6-8.6 4-11.8 4-2.1 0-4.2-.4-6.1-1.3 1.8-1.1 3.6-2.4 5.3-3.9 8-7.3 10.4-15.5 9.9-20.8-.5-5.3-6.9-13.6-17.9-6.9-6 3.6-9.7 11.4-9.7 18.9 0 4.6 1.2 8.6 3.6 11.8-5.4 2.3-10.1 2.6-12.9 1.7-5.5-1.7-5.9-13.4-.4-22.1.7-1.2.7-2.6-.4-3.5-1.1-.9-2.6-.7-3.5.4-.3.3-5.3 6.9-4.9 17-5.4 7.4-11.1 10.3-15.4 7.8-4.1-2.4-6.4-9.6-2.8-17.1 7.1-14.9 22.8-12.4 23.5-12.3 1.4.2 2.6-.7 2.9-2 .2-1.4-.7-2.6-2-2.9-.2 0-5.1-.9-11.1.5C14.4 83.8 6.8 87.4 2.2 97c-2.1 4.4-2.7 9.3-1.8 13.7.9 4.3 3.3 7.9 6.6 9.8 1 .6 3.1 1.5 5.8 1.5 3.5 0 8.1-1.5 13.2-7.1 1 3 3.3 5.3 6.5 6.4 4.8 1.6 11.5.5 18.3-2.7 3.1 2.2 7 3.5 11.1 3.5 14.8 0 23-10 25-30.6.2-1.6.3-3.1.3-4.4 5.1.4 10.4 3.4 10.4 11.5 0 12 1.4 20.5 8.1 23.1 1 .4 2.1.6 3.1.6 3.4 0 6.6-1.8 8.6-3.2 1.8 1.5 4 2.4 6.2 2.9 1 .2 2.1.3 3.1.3 7.7 0 16-5.4 19-16.8.1-.4.2-.8.3-1.1 2.7-.2 5.9-.9 9.6-2.7-.3 7.1.6 13 3.4 16.1 3.8 4.3 8.7 5.6 13.9 3.6 2.2-.9 4.4-2.3 6.6-4.2 1 1.5 2.4 2.7 3.9 3.7 1 .6 3 1.5 5.8 1.5 3.3 0 7.7-1.4 12.5-6.4 1.1 3.3 3.5 5.6 6.6 6.2.6.1 1.2.2 1.8.2 3.4 0 7.6-1.9 11-7.2.2-.3.4-.6.6-1 2 4.7 5 6.6 7.5 7.4 5 1.4 9.5.9 13.4-1.6 5.5-3.6 8.6-10.4 10.3-15.6h1.5c9.5-.2 13.3-3.9 14.5-5.5.2-.2.3-.4.5-.7.2-.3.3-.6.3-.9.4-1.4 0-2.4-.9-2.9zm-97.5-31.3c4.8-9.2 8.3-10.2 9.6-10.2h.2c1.4.2 2.1.7 2.4 2 1.6 7.1-9.1 26.1-21.3 36.5 1.6-9.5 4.9-20.2 9.1-28.3zM76.8 73.8c2.5-1.1 4.7 2.5 5.4 7.7-7.6-.7-7.9-6.5-5.4-7.7zm-28.3 29.3c0-5.7 3-11.9 7.5-14.7 6.8-4.2 9.8.6 10.2 3.5.6 4.3-1.6 10.1-8.1 16.3-2 1.9-4.3 3.3-6.4 4.5-2-2.3-3.2-5.5-3.2-9.6zm91.5-5c-1.6-.9-2.6-2.2-2.6-3.5.1-2.3 2.1-2.7 3-1.9 1 .8 1.6 3.5 1.5 6.1-.8-.2-1.5-.5-1.9-.7zm84.9 2c.1-4.2.6-8.9 1.6-14.1 1.2-6.2 3.1-12.2 5.2-17.2 0 0 1.8-4 2.7-5.8.5-1 1-1.9 1.5-2.7.4-.6 1.1-1.8 1.1-1.8 3.5-5.1 5.9-5.8 7-5.8h.2c1.4.2 2.1.7 2.4 2 .5 2.3-.3 5.9-2 10-.4.9-.8 1.9-1.3 2.9-.3.7-1 2-1 2-.5.9-1 1.9-1.5 2.9-4.5 9-10.2 18.9-15.9 27.6zm24.7-1.8c-2.2-.9-3.2-2.4-3.2-3.8 0-1.1.4-2.3 2-2.4 2.7 0 1.5 4.8 1.2 6.2z"/><path fill="#FF7C00" d="M42 67.2c.7-.2 1.7-1.4 3.5-2.8 1.2-.8 4.7-3.5 9.6-5.4 4.9-1.9 7.2-1.9 8.9-2.3 3.9-.7 7.9-.2 10.8.5 4.8 1.1 7.8 3.8 13 9.9 7.2 8.5 13.8 9.4 20.4 7 6.3-2.3 15-13.6 24.6-24.7 1.5-1.8 16.7-19.4 17.6-20.4.1-.1.1-.2.1-.2v-.1-.1-.1-.1-.1c-4.6-8.1-15.3-24.8-17.4-28.1 0-.1-.2-.3-.4-.4h-.1c-.2 0-.3.1-.3.1-.8.5-1.8 1.1-3 1.8-8.2 4.9-23.9 14.4-24.1 14.6-.1 0-.1.1-.1.1v.5c.6 2.8 10.4 48.2 10.7 49.8-1.2 1.2-2.4 2.3-3.6 3.2-1.6 1.3-3.2 2.3-4.7 2.8-2.1.7-3.8 1-5.5.9-5.3-.3-9.3-3.8-12.1-7.2-4.5-5.4-8.5-11.6-20.1-12.5-13.2-1.1-23.2 4.7-26.5 7.3-1.6 1.3-2.7 2-3.3 2.7-.6.8-.5 1.8.2 2.6.5.9 1.2.9 1.8.7z"/><path fill="#0087C3" d="M150.7 28.7z"/></svg>