<svg viewBox="0 0 56 26" width="75" height="35" xmlns="http://www.w3.org/2000/svg"><path d="M9.1 15.887a.726.726 0 0 1-.36.52c-.192.124-.36.186-.53.248-.362.125-.743.25-1.146.395-.425.145-.806.29-1.146.395-.424.145-.827.27-1.21.415a3.57 3.57 0 0 0-.805.478 3.422 3.422 0 0 0-.594.706c-.17.29-.278.664-.278 1.1 0 .873.212 1.537.637 1.952.423.437 1.21.644 2.374.644 1.188 0 1.994-.228 2.42-.685.423-.457.635-1.1.635-1.93v-4.238zm-3.055-9.2c2.08 0 3.607.395 4.582 1.205.976.79 1.464 1.806 1.464 3.01v10.26c0 .415-.083.872-.23 1.37-.15.5-.447.956-.914 1.37-.445.417-1.06.77-1.845 1.04-.784.27-1.802.415-3.054.415-1.25 0-2.27-.145-3.054-.415-.784-.27-1.4-.623-1.845-1.04a3.326 3.326 0 0 1-.912-1.37c-.15-.497-.235-.954-.235-1.37v-1.64c0-.872.233-1.682.7-2.39.467-.725 1.124-1.223 1.973-1.535.424-.145.912-.29 1.463-.477.552-.188 1.06-.375 1.57-.54.51-.167.955-.334 1.336-.48a9.26 9.26 0 0 1 .7-.248l.382-.187c.15-.083.297-.208.446-.374.148-.164.275-.35.382-.56a1.6 1.6 0 0 0 .17-.725v-.665a1.69 1.69 0 0 0-.15-.707c-.084-.25-.254-.478-.487-.685-.233-.208-.552-.374-.933-.5-.382-.123-.89-.186-1.464-.186-1.188 0-1.973.23-2.397.706-.36.416-.57.935-.613 1.516 0 .125-.106.208-.234.208l-2.587.042a.233.233 0 0 1-.234-.23v-.6c0-.583.107-1.123.34-1.642.234-.52.595-.955 1.082-1.33.488-.373 1.125-.684 1.888-.892.743-.25 1.655-.353 2.715-.353zm46.9 9.2a.726.726 0 0 1-.36.52c-.19.124-.36.186-.53.248-.36.125-.743.25-1.146.395-.426.145-.808.29-1.147.395-.425.145-.828.27-1.21.415a3.57 3.57 0 0 0-.806.478 3.422 3.422 0 0 0-.593.706c-.17.29-.276.664-.276 1.1 0 .873.21 1.537.635 1.952.424.437 1.21.644 2.376.644 1.19 0 1.994-.228 2.42-.685.422-.457.634-1.1.634-1.93v-4.238zm-3.054-9.2c2.08 0 3.608.395 4.584 1.205.975.79 1.463 1.806 1.463 3.01v10.26c0 .415-.084.872-.233 1.37-.148.5-.445.956-.912 1.37-.445.417-1.06.77-1.845 1.04-.784.27-1.803.415-3.054.415-1.25 0-2.27-.145-3.054-.415-.785-.27-1.4-.623-1.846-1.04a3.325 3.325 0 0 1-.91-1.37c-.15-.498-.235-.955-.235-1.37v-1.64c0-.873.233-1.683.7-2.39.466-.726 1.124-1.224 1.972-1.536.424-.145.912-.29 1.464-.477.55-.19 1.06-.376 1.57-.54.51-.168.954-.335 1.336-.48a9.26 9.26 0 0 1 .7-.25l.382-.186c.148-.083.297-.208.445-.374a2.54 2.54 0 0 0 .38-.56 1.6 1.6 0 0 0 .17-.726v-.665a1.69 1.69 0 0 0-.15-.708c-.083-.25-.252-.478-.486-.685-.233-.208-.55-.374-.933-.5-.38-.123-.89-.186-1.463-.186-1.188 0-1.972.23-2.397.707-.36.416-.572.935-.615 1.516 0 .125-.105.208-.232.208H44.12a.233.233 0 0 1-.232-.227v-.603c0-.58.106-1.12.34-1.64.233-.518.593-.955 1.08-1.328.49-.374 1.125-.686 1.89-.893.72-.21 1.632-.314 2.693-.314zm-9.1.083h1.7c.147 0 .253.146.21.29l-.572 2.16c-.02.105-.127.167-.212.167h-1.188c-.636 0-1.145.083-1.548.25-.383.165-.7.352-.913.58-.212.23-.34.457-.403.686a2.74 2.74 0 0 0-.085.685v13.354a.233.233 0 0 1-.236.228H35a.233.233 0 0 1-.233-.228V10.985c0-.248.042-.622.148-1.1.085-.477.34-.934.743-1.412.403-.457.997-.872 1.803-1.204.808-.335 1.91-.5 3.33-.5zm-8.57 13.935v.623c0 .27-.04.644-.146 1.122-.085.456-.34.934-.743 1.39-.402.458-.996.873-1.802 1.205-.806.333-1.91.5-3.33.5-1.42 0-2.524-.167-3.33-.5-.806-.332-1.4-.726-1.803-1.204-.403-.455-.658-.933-.743-1.41-.084-.48-.147-.83-.147-1.1V7.35c0-.125.106-.23.233-.23h2.524c.128 0 .234.105.234.23v13.083c0 .436.063.748.127.997.065.25.192.498.383.706.19.228.488.415.89.56.382.146.913.23 1.57.23.68 0 1.23-.084 1.634-.23.403-.145.7-.332.912-.54.21-.207.36-.435.423-.685.064-.25.15-.456.15-1.06V7.333c0-.125.105-.23.232-.23h2.524c.127 0 .233.105.233.23v13.374h-.02zM14.85.105h2.525c.127 0 .233.103.233.227v24.734a.233.233 0 0 1-.233.23H14.85a.233.233 0 0 1-.233-.23V.332c.02-.124.106-.228.233-.228z" fill="#fff" fill-rule="evenodd"/></svg>