<svg xmlns="http://www.w3.org/2000/svg" width="1552.305" height="457.443" viewBox="0 0 1552.305 457.443"><linearGradient id="a" gradientUnits="userSpaceOnUse" x1="567.553" y1="-131.471" x2="356.556" y2="145.222" gradientTransform="matrix(1 0 0 -1 -156 212.443)"><stop offset=".031" stop-color="#4aacd4"/><stop offset=".429" stop-color="#5bb0d9"/><stop offset=".583" stop-color="#58a7ca"/><stop offset="1" stop-color="#1c456a"/></linearGradient><path fill="url(#a)" d="M500.663 4.96s-6.328 15.397-24.828 15.397h-75.252c-64.52 0-76.127 54.734-76.127 54.734L297.51 216.65h41.484c59.657 0 57.73 42.765 57.73 42.765l-1.713 23.516s-2.346-23.515-42.76-23.515c-31.45 0-50.03 10.27-50.03 10.27s-12.827 7.486-17.114 23.943c-1.928 8.986-22.24 116.743-22.24 116.743s-6.237 24.958 16.152 34.76c16.078 7.062 45.437 9.298 45.437 9.298H189.318c-67.797 0-73.802-51.745-71-65.877 1.7-10.9 7.675-34.397 9.167-40.58 17.563-67.15 162.32-87.264 162.32-87.264s-148.573 14.66-158.233 15.385C16.732 288.345 7.107 214.946 7.107 214.946h142.85l34.632-129.162s25.546-80.99 106.665-80.99c17.636 0 209.408.168 209.408.168z"/><path opacity=".28" fill="#3E6EB5" d="M301.118 122.136l-21.763 5.94-.46-27.304 22.223 21.364"/><path opacity=".28" fill="#487ABC" d="M278.896 100.72l-41.148 58.95 41.607-31.593-.406-27.253"/><path opacity=".28" fill="#4071B7" d="M278.854 100.772l-40.58 20.627-.452 38.172 41.127-58.853"/><path opacity=".28" fill="#4578BB" d="M238.257 121.967L195.53 167.94l42.32-8.425.46-37.44"/><path opacity=".22" fill="#4572B7" d="M195.62 168l-13.41-41.15 45.71-37.243z"/><path opacity=".13" fill="#3F6CB3" d="M182.195 126.854l10.022-23.343 36.115-14.205z"/><path opacity=".28" fill="#4676BA" d="M297.985 144.28l-18.63-16.203 21.763-5.94z"/><path opacity=".53" fill="#4F7FC0" d="M297.985 144.28l-30.355 17.41 11.725-33.613z"/><path opacity=".53" fill="#4173B8" d="M279.355 128.077l-41.363 31.4 29.638 2.214z"/><path opacity=".53" fill="#4B7DBF" d="M298 144.29l-8.984 48.654-21.386-31.253z"/><path opacity=".53" fill="#477BBD" d="M289.016 192.944l-28.16 1.63 6.774-32.883z"/><path opacity=".53" fill="#4678BB" d="M267.63 161.69l-36.27 24.176 29.495 8.707z"/><path opacity=".53" fill="#477BBD" d="M237.793 159.565l-6.434 26.3 36.27-24.174-29.676-2.212"/><path opacity=".53" fill="#4B7DBF" d="M237.85 159.425L194.2 189.85l37.16-3.984z"/><path opacity=".38" fill="#386DB4" d="M237.91 159.478l-42.43 8.463-1.28 22z"/><path opacity=".53" fill="#447DBF" d="M289.016 192.944l-56.197 36.21 46.05-1.224z"/><path opacity=".53" fill="#4A81C2" d="M289.016 192.944l-28.16 1.63-27.918 34.58z"/><path opacity=".53" fill="#417DBF" d="M260.855 194.573L233.1 229.11l-1.74-43.244z"/><path opacity=".53" fill="#3E77BB" d="M231.36 185.866l-45.388 44.1 47.157-.855z"/><path opacity=".53" fill="#477DBF" d="M231.36 185.866l-37.16 3.985-8.228 40.116z"/><path opacity=".25" fill="#4478BB" d="M158.437 183.207l-1.794 6.703 37.556-.06 1.38-21.966z"/><path opacity=".3" fill="#5690CC" d="M367.476 224.817l-28.78 28.597 31.06 7.183z"/><path opacity=".38" fill="#5A90CB" d="M367.526 224.796l-28.882-3.64.053 32.258z"/><path opacity=".53" fill="#548DCA" d="M338.644 221.155l-29.667 19.492-11.378-24.073z"/><path opacity=".53" fill="#558DCA" d="M297.6 216.62l-18.73 11.31 30.1 12.717z"/><path opacity=".53" fill="#518ECB" d="M278.87 227.93l-13.26 31.805 43.352-19.08z"/><path opacity=".5" fill="#4080C1" d="M233.1 229.09l-47.128.876 8.34 33.78z"/><path opacity=".53" fill="#3F77BB" d="M194.2 189.85l-55.42 33.625 47.192 6.49z"/><path opacity=".53" fill="#548ECA" d="M338.644 221.155l-29.675 19.487 29.727 12.772z"/><path opacity=".53" fill="#4A98D3" d="M278.44 326.842l-41.224 20.315.46 38.67z"/><path opacity=".49" fill="#4A97D1" d="M278.44 326.842l-49.185-10.648 8.007 31.008z"/><path opacity=".48" fill="#5296D1" d="M275.133 281.006l-45.87 35.188 49.47 10.952z"/><path opacity=".66" fill="#498ECC" d="M275.038 281.093l-48.432 15.877 2.65 19.224z"/><path opacity=".53" fill="#437EC0" d="M186.05 229.97l-40.075 20.426-7.24-26.92z"/><path opacity=".46" fill="#3D7BBE" d="M185.973 229.97l-39.998 20.426s48.44 13.785 48.338 13.35c-1.535-6.518-8.34-33.777-8.34-33.777z"/><path opacity=".53" fill="#3D79BC" d="M138.757 223.475l-27.407 31.6 34.625-4.68z"/><path opacity=".5" fill="#4992CE" d="M195.3 294.754l-2.796 33.256-41.49.374z"/><path opacity=".53" fill="#4993CF" d="M195.3 294.754l31.306 2.216-34.102 31.04z"/><path opacity=".53" fill="#569BD4" d="M226.606 296.97l2.65 19.224-36.752 11.816z"/><path opacity=".53" fill="#4092CF" d="M151.015 328.384l.945 22.375 40.544-22.75z"/><path opacity=".53" fill="#3A8DCB" d="M131.962 337.438c-3.21 6.38-4.59 11.133-4.98 12.625l24.996.717-.963-22.396-19.053 9.054z"/><path opacity=".53" fill="#569FD7" d="M192.504 328.01l-40.544 22.75 30.108 1.583z"/><path opacity=".4" fill="#499BD5" d="M151.97 350.765c-.133 1.064-.06 38.992-.06 38.992l30.158-37.414-30.098-1.578z"/><path opacity=".44" fill="#3B97D2" d="M182.02 352.054l-30.11 37.703 43.96 4.055z"/><path opacity=".53" fill="#4C96D1" d="M192.504 328.01l-10.443 24.362 47.195-36.178z"/><path opacity=".53" fill="#50A0D8" d="M229.255 316.194l-33.396 77.614-13.778-41.452z"/><path opacity=".53" fill="#509CD5" d="M195.848 393.82l41.457-46.788-8.05-30.838z"/><path opacity=".53" fill="#58A4DA" d="M237.262 346.996l-41.414 46.8 41.828-7.97z"/><path opacity=".61" fill="#58A7DC" d="M151.912 389.758l-9.594 26.695 53.543-22.64z"/><path opacity=".4" fill="#5AAADE" d="M195.848 393.82v22.39l-53.533.243z"/><path opacity=".48" fill="#49A0D8" d="M237.676 385.827L195.84 416.21l.027-22.41z"/><path opacity=".78" fill="#66B5DD" d="M237.676 385.827l-4.738 26.768-37.098 3.614z"/><path opacity=".83" fill="#5FABDE" d="M267.073 388.007l-29.397-2.18-5.602 27.187 34.864-24.333z"/><path opacity=".72" fill="#5CAEDD" d="M232.524 412.28L187.54 454.3l8.3-38.09z"/><path opacity=".53" fill="#60AEDD" d="M232.463 412.27l28.25 8.682-28.11 33.583z"/><path opacity=".13" fill="#4F79BC" d="M310.902 91.09l-32.02 9.66 18.037-21.97z"/><path opacity=".13" fill="#4270B6" d="M276.077 55.985l2.806 44.765 18.036-21.97z"/><path opacity=".13" fill="#4370B6" d="M276.077 55.985L227.92 89.607l50.963 11.143z"/><path opacity=".13" fill="#3B68B1" d="M276.077 55.985L227.824 70.53l.508 18.775z"/><path opacity=".08" fill="#4069B1" d="M276.11 55.962c-.4-.096-35.704-15.208-35.704-15.208L227.823 70.53l48.286-14.568z"/><path opacity=".1" fill="#4266AF" d="M240.407 40.754l25.376-6.326L276.05 55.96z"/><path opacity=".13" fill="#3F66AF" d="M337.325 28.666l-28.7-13.477-8.62 31.576z"/><path opacity=".13" fill="#3F6EB5" d="M308.635 15.214l-32.63 40.66 24.1-9.09z"/><path opacity=".1" fill="#3E6BB3" d="M308.692 15.156l-43.008 19.138 10.294 21.557z"/><path opacity=".08" fill="#4164AD" d="M308.718 15.14l-22.135-9.89c-3.15.126-6.216.338-9.173.697l-11.627 28.48 42.935-19.287z"/><path opacity=".06" fill="#3A5FAB" d="M279.068 1.885l-38.66 38.87 25.375-6.327z"/><path opacity=".09" fill="#3A64AE" d="M240.407 40.754L227.824 70.53l-31.122-1.948z"/><path opacity=".07" fill="#4670B6" d="M227.904 70.552l-35.724 33.024 4.522-34.994z"/><path opacity=".13" fill="#4974B8" d="M228.332 89.305l-36.057 14.175 35.55-32.95z"/><path opacity=".28" fill="#4372B7" d="M310.902 91.09l-32.02 9.66 22.236 21.386z"/><path opacity=".13" fill="#3E6EB5" d="M278.883 100.75l-40.692 21.24-10.27-32.383z"/><path opacity=".21" fill="#4170B6" d="M238.36 121.99l-42.78 45.894 32.34-78.277z"/><path opacity=".33" fill="#3B79BC" d="M98.982 220.993l12.368 34.08 27.407-31.598z"/><path opacity=".53" fill="#3C8DCC" d="M131.962 337.438l19.052-9.056-13.857.134a88.865 88.865 0 0 0-5.195 8.922z"/><path opacity=".53" fill="#438DCB" d="M142.17 321.644a90.59 90.59 0 0 0-5.012 6.873l13.857-.133-3.312-12.316a89.428 89.428 0 0 0-5.533 5.576z"/><path opacity=".53" fill="#4690CD" d="M147.703 316.065l3.312 12.317 44.286-33.63-13.68-1.354c-12.578 6.378-24.607 14.028-33.917 22.667z"/><g opacity=".53" fill="#4388C7"><path d="M194.477 269.967l-.163-6.222-16.604 7.898c5.378-.51 10.892-1.106 16.767-1.676zM181.608 293.4l13.692 1.354-.177-7.72c-4.697 1.957-9.124 4.154-13.515 6.367z"/></g><g opacity=".53" fill="#3B82C4"><path d="M228.592 266.696l-34.28-2.95.18 6.22c11.607-1.127 22.368-2.102 34.1-3.27zM195.107 287.033l.193 7.72 30.52-19.042c-9.976 3.167-20.638 6.992-30.713 11.323z"/></g><path opacity=".53" fill="#3F86C7" d="M225.803 275.728L195.3 294.754l31.318 2.27 10.325-24.632a379.184 379.184 0 0 0-11.14 3.336z"/><path opacity=".53" fill="#5193CE" d="M236.976 272.374l-10.37 24.596 48.41-15.807-30.802-10.814c-2.668.71-4.454 1.225-7.238 2.024z"/><g opacity=".53" fill="#5493CE"><path d="M267.034 262.922l-1.413-3.188-16.253 4.93c6.61-.665 12.237-1.192 17.667-1.742zM244.23 270.35l30.786 10.813-7.13-16.43c-6.73 1.437-15.04 3.323-23.656 5.616z"/></g><path opacity=".53" fill="#4F8CCA" d="M265.638 259.74l1.396 3.19c13.662-1.39 22.772-2.226 22.772-2.226s-8.61 1.185-21.927 4.02l7.136 16.44 33.945-40.51-43.322 19.086z"/><path opacity=".53" fill="#4984C5" d="M249.343 264.67l16.27-4.935 13.284-31.824-38.24 37.755c3.168-.316 5.684-.695 8.686-.995z"/><path opacity=".46" fill="#4987C6" d="M240.823 265.647l38.046-37.717-45.97 1.18 5.848 36.745 2.075-.208z"/><path opacity=".46" fill="#4A89C8" d="M238.75 265.854l-5.782-36.702-38.654 34.59 35.808 2.97c2.915-.286 5.797-.572 8.63-.858z"/><path opacity=".53" fill="#4485C5" d="M142.907 275.008c6.607-.582 19.097-1.77 34.54-3.24 0 0 16.75-7.946 16.846-8.012-3.577-.655-48.318-13.353-48.318-13.353l-3.09 24.57c.175-.024-.154.058.022.035z"/><path opacity=".53" fill="#3F85C6" d="M142.85 275.02l3.12-24.61-20.424 26.22c5.343-.438 11.033-1.053 17.305-1.61z"/><path opacity=".53" fill="#3B79BC" d="M125.545 276.63l20.424-26.24c.898-.02-34.62 4.672-34.62 4.672l.818 22.194c4.184-.07 8.698-.31 13.377-.627z"/><path opacity=".53" fill="#3475AF" d="M66.742 272.593l22.723 3.86c6.583.614 14.194.948 22.842.8l-.957-22.18-50.09 15.893a86.54 86.54 0 0 0 5.482 1.627z"/><path opacity=".14" fill="#3C6DB4" d="M59.87 270.483l39.113-49.49-35.88-4.918-5.415 53.574c.554.23 1.288.512 2.183.833z"/><path opacity=".3" fill="#3F74B9" d="M63.41 271.65l47.94-16.576-12.368-34.08-39.112 49.49c.977.352 2.155.745 3.54 1.165z"/><path opacity=".53" fill="#376EB5" d="M156.643 189.91l-6.687 24.982H139.64l-.86 8.61 55.42-33.65z"/><path opacity=".73" fill="#4BA1D8" d="M118.853 385.962c-.19 1.027-.363 2.012-.5 2.89-.98 4.94-.87 14.488 2.57 24.808l30.988-23.9-33.057-3.798z"/><path opacity=".44" fill="#55AADA" d="M151.907 389.765l-30.88 24.194a60.046 60.046 0 0 0 2.397 5.973l19.14-3.61 9.343-26.558z"/><path opacity=".51" fill="#47A7DD" d="M123.425 419.933a56.6 56.6 0 0 0 3.874 7.03l15.266-10.642-19.14 3.613z"/><path opacity=".32" fill="#51AADA" d="M127.295 426.96c3.528 5.425 8.268 10.608 14.52 15.003l.736-25.642-15.255 10.64z"/><path opacity=".6" fill="#46A2DA" d="M142.552 416.32l-.725 25.65a60.047 60.047 0 0 0 6.99 4.217l47.258-30.11-53.523.244z"/><path opacity=".68" fill="#4399D4" d="M151.96 350.757l-31.263 26.198c-.724 3.302-1.37 6.417-1.857 9.09l33.072 3.712.05-39z"/><path opacity=".59" fill="#4598D3" d="M127.157 349.778c-1.324 5.398-4.25 17.093-6.46 27.177l31.256-26.175-24.796-1.002z"/><path opacity=".16" fill="#5C93CD" d="M369.655 260.694l15.486-28.644a41.575 41.575 0 0 0-5.222-4.405l-12.444-2.83 2.18 35.88z"/><path opacity=".53" fill="#5592CD" d="M308.954 240.642l-9.578 31.418c1.724-1.38 2.883-2.064 2.883-2.064s5.567-3.057 15.702-5.834l20.772-10.848-29.78-12.672z"/><path opacity=".53" fill="#4C8BC9" d="M296.173 274.927a41.087 41.087 0 0 1 3.27-2.922l9.52-31.355-33.834 40.356 21.043-6.08z"/><path opacity=".47" fill="#3664AE" d="M163.12 165.84l32.453 2.153-13.378-41.18-12.88 15.863z"/><path opacity=".55" fill="#517DBE" d="M296.982 203.88l-7.96-10.894-10.147 34.984 18.617-11.327z"/><linearGradient id="b" gradientUnits="userSpaceOnUse" x1="439.009" y1="35.714" x2="460.138" y2="37.293" gradientTransform="matrix(1 0 0 -1 -156 212.443)"><stop offset=".031" stop-color="#4d85c5" stop-opacity=".8"/><stop offset="1" stop-color="#4d85c5" stop-opacity="0"/></linearGradient><path fill="url(#b)" d="M301.383 183.755l-3.31-39.696-9.052 48.926 10.296 14.067z"/><linearGradient id="c" gradientUnits="userSpaceOnUse" x1="454.117" y1="44.213" x2="463.614" y2="44.213" gradientTransform="matrix(1 0 0 -1 -156 212.443)"><stop offset=".031" stop-color="#4d85c5" stop-opacity=".8"/><stop offset="1" stop-color="#4d85c5" stop-opacity="0"/></linearGradient><path fill="url(#c)" d="M307.614 156.697l-9.497-12.284 3.62 47.634z"/><path opacity=".25" fill="#5483C3" d="M310.096 148.19l-12.092-3.993 10.142 13.257z"/><path opacity=".35" fill="#5180C1" d="M312.727 134.385l-14.675 9.894 12.35 4.116z"/><path opacity=".49" fill="#4B78BB" d="M314.172 122.858l-13.05-.68-3.137 22.168 15.173-10.267z"/><path opacity=".22" fill="#5179BC" d="M325.443 71.794l-28.52 7.027 13.983 12.31 12.154-9.402c.614-3.163 1.4-6.575 2.383-9.934z"/><path opacity=".83" fill="#5A90CB" d="M338.644 221.155l-1.96-4.395-39.192-.117z"/><path opacity=".87" fill="#5A90CB" d="M338.644 221.155s3.898-4.226 3.856-4.268c-.425-.127-5.817-.127-5.817-.127l1.96 4.395z"/><path opacity=".38" fill="#5A90CB" d="M369.766 260.617c-.526.02 26.052-8.093 26.052-8.093s.896 4.447.697 8.832c-.08 1.73-1.525 20.937-1.525 20.937s-2.5-16.876-25.224-21.676z"/><path opacity=".05" fill="#3D5FAB" d="M49.994 266.423l-27.822-27.68-1.815 4.182c1.69 2.387 11.42 15.287 29.637 23.498z"/><path opacity=".39" fill="#3B6AB2" d="M320.244 95.206l-9.336-4.077-9.785 31.048 14.692-8.374z"/><path opacity=".55" fill="#4D76BA" d="M320.244 95.206l2.806-13.454-12.142 9.377 9.34 4.077z"/><path opacity=".85" fill="#517DBE" d="M314.172 122.858l1.643-9.052-14.692 8.372z"/><linearGradient id="d" gradientUnits="userSpaceOnUse" x1="544.798" y1="200.644" x2="506.733" y2="195.651" gradientTransform="matrix(1 0 0 -1 -156 212.443)"><stop offset=".031" stop-color="#2d6a91" stop-opacity=".8"/><stop offset="1" stop-color="#2d6a91" stop-opacity="0"/></linearGradient><path fill="url(#d)" d="M338.13 5.122l23.9 23.51 43.245-23.51z"/><linearGradient id="e" gradientUnits="userSpaceOnUse" x1="609.093" y1="204.154" x2="571.028" y2="199.162" gradientTransform="matrix(1 0 0 -1 -156 212.443)"><stop offset=".031" stop-color="#487797" stop-opacity=".41"/><stop offset="1" stop-color="#2d6a91" stop-opacity="0"/></linearGradient><path fill="url(#e)" d="M439.61 19.812l30.42-14.69h-67.145l11.54 14.69z"/><g fill="#184367"><path d="M920.07 321.57c-5.65 2.497-14.77 4.76-26.065 4.76-25.377 0-40.76-15.953-40.76-41.61 0-18.95 7.613-36.973 21.506-48.466 10.274-8.8 23.136-13.557 37.864-13.557 11.182 0 19.107 2.813 21.785 4.912l-4.048 10.014c-3.725-2.257-10.857-4.202-19.816-4.202-10.465 0-21.01 4.024-28.78 11.36-9.417 8.777-15.362 22.955-15.362 38.162 0 18.035 8.203 32.81 30.582 32.81 7.596 0 15.957-1.49 21.488-4.305l1.605 10.12zM1020.016 263.828c0 17.44-6.242 36.69-18.2 48.603-8.94 8.84-20.597 14.02-34.472 14.02-25.93 0-38.184-19.49-38.184-40.837 0-17.784 7.037-37.25 19.256-49.358 8.504-8.35 21.027-13.562 33.717-13.562 26.96.004 37.883 19.704 37.883 41.135zm-62.506-20.556c-9.69 9.676-15.36 27.276-15.36 41.287 0 16.415 7.317 31.462 27.02 31.462 8.487 0 16.692-3.688 22.94-9.974 9.413-9.536 14.903-27.592 14.903-41.632 0-14.29-4.596-31.28-26.523-31.28-8.94.006-16.874 3.867-22.98 10.136zM1107.553 324.844l7.18-54.3c1.326-9.536 3.566-24.277 5.51-33.997h-.592c-4.642 10.15-10.15 22.043-15.683 32.372l-29.81 55.328h-9.554l-7.455-54.14a482.21 482.21 0 0 1-3.133-33.562h-.305c-2.236 9.263-5.39 24.46-7.764 33.997l-13.703 54.3h-11.635l26.064-100.527h15.842l7.908 57.704c1.03 8.508 2.238 17.604 2.38 25.058h.452c3.113-7.453 7.48-16.413 11.775-24.763l31.18-58h16.1l-12.833 100.53h-11.924zM1220.903 324.844l7.178-54.3c1.327-9.536 3.59-24.277 5.49-33.997h-.595c-4.6 10.15-10.11 22.043-15.64 32.372l-29.835 55.328h-9.555l-7.453-54.14a510.143 510.143 0 0 1-3.137-33.562h-.3c-2.237 9.263-5.37 24.46-7.74 33.997l-13.728 54.3h-11.637l26.092-100.527h15.838l7.89 57.704c1.026 8.508 2.233 17.604 2.36 25.058h.45c3.153-7.453 7.478-16.413 11.798-24.763l31.174-58h16.102l-12.826 100.53h-11.925zM1307.868 277.562h-36.55l-6.86 36.694h41.156l-2.088 10.587h-53.54l19.087-100.527h51.324l-2.062 10.604h-38.812l-6.105 32.192h36.533l-2.082 10.45zM1336.038 225.806c6.125-1.328 14.494-2.24 21.947-2.24 9.994 0 18.627 2.402 24 7.32 4.627 4.04 7.438 9.87 7.438 16.727 0 14.548-11.164 25.477-23.848 29.04l-.143.317c7.018 2.377 10.43 9.832 11.18 20.26 1.057 14.014 1.79 23.547 3.117 27.614h-12.808c-.578-2.084-1.645-12.672-2.38-24.323-.728-13.718-5.804-19.524-15.813-19.524h-11.046l-8.205 43.85h-12.368l18.926-99.04zm3.568 45.65h11.043c15.692 0 25.804-10.287 25.804-22.357 0-10.74-8.043-15.503-19.385-15.503-4.92 0-8.19.418-10.437 1.032l-7.027 36.825zM1462.368 321.57c-5.67 2.497-14.77 4.76-26.105 4.76-25.354 0-40.72-15.953-40.72-41.61 0-18.95 7.595-36.973 21.472-48.466 10.303-8.8 23.13-13.557 37.898-13.557 11.182 0 19.113 2.813 21.768 4.912l-4.024 10.014c-3.707-2.257-10.88-4.202-19.803-4.202-10.47 0-21.05 4.024-28.824 11.36-9.397 8.777-15.345 22.955-15.345 38.162 0 18.035 8.21 32.81 30.568 32.81 7.613 0 15.938-1.49 21.492-4.305l1.623 10.12zM1530.524 277.562h-36.516l-6.88 36.694h41.15l-2.083 10.587h-53.543l19.094-100.527h51.3l-2.083 10.604h-38.754l-6.146 32.192h36.553l-2.093 10.45z"/></g><path fill="#184367" d="M779.5 222.42h-32.546c-29.542 0-39.414 18.53-41.754 24.26-8.462 24.028 11.4 35.407 11.4 35.407s10.664 5.645 17.5 9.568c6.74 3.904 6.643 13.535 1.353 18.156-17.644 12.983-24.443-5.926-25.674-9.216-1.19-3.234-4.696-1.268-4.696-1.268s-4.646 2.14-8.86 4.876c-4.66 3-1.862 6.562-1.862 6.562s15.165 20.715 39.486 15.125c8.188-1.886 41.513-9.534 34.59-41.75-3.626-16.41-25.53-22.536-29.653-24.583-5.95-2.61-8.405-7.51-7.376-12.7 1.43-7.198 6.144-10.313 14.845-10.313H777.4l2.1-14.124zM642.107 175.755H601.45c-44.84 0-52.69 38.198-52.69 38.198l-16.53 104.31s-.12.37-.157.992l-.834 4.812h5.333l.315.043h31.422c6.696 0 7.607-5.85 7.607-5.85l8.268-50.863h29.835c4.403 0 4.938-4.287 4.938-4.287l2.654-16.846H587.5l4.975-31.62s2.198-19.09 14.254-19.09h26.683c5.63 0 5.982-4.955 5.982-4.955l1.97-10.61s.058-.194.058-.512l.684-3.723z"/><path fill="#184367" d="M858.516 222.438h-4.578l-.213-.018H766.38c-3.807 0-4.28 3.828-4.28 3.828l-1.052 7.194s-.614 3.113 3.81 3.113h22.06c5.015 0 3.983 4.317 3.983 4.317l-12.27 77.435s-.02.236-.08.47l-.87 5.23h4.813l.102.042h24.88c5.45 0 6.183-5.19 6.183-5.19l12.275-77.986s.312-4.318 6.22-4.318h18.972c4.9 0 5.89-4.662 5.89-4.662l.833-5.333s.074-.38.074-.83l.594-3.292zM692.08 317.728c-.08-.68-14.43-79.79-14.628-80.578-.442-1.605-4.186-16.5-17.965-16.5-11.773 0-15.68 4.407-19.105 9.22-1.248 1.742-4.086 6.94-4.086 6.94l-39.487 81.353-.175.318c-.045.063-.045.063-.062.118l-2.6 5.02h13.008a8 8 0 0 0 7.81-5.31l4.48-9.642s1.39-3.232 4.84-3.232h26.347c4.023 0 4.24 2.775 4.24 2.775l1.482 10.23s.6 5.407 5.532 5.407h24.78c5.31.004 5.71-4.91 5.59-6.12zm-43.97-27.457c-3.212 0-20.1.042-20.1.042s14.826-30.984 15.423-32.275c.556-1.566 3.667-5.27 4.72.238 1.03 5.554 3.545 26.246 3.545 26.246s.976 5.75-3.587 5.75z"/><path opacity=".36" fill="#49A0D8" d="M232.938 412.595l-44.285 40.627 44 .333z"/></svg>