<svg xmlns="http://www.w3.org/2000/svg" viewBox="0 0 842 595"><path class="animate-left-2" fill-rule="evenodd" clip-rule="evenodd" fill="#D6CFD5" d="M458.703 169.5l-9.35 5.952-5.483-25.61 9.34-6.008z"/><path class="animate-left-2" fill-rule="evenodd" clip-rule="evenodd" fill="#12100D" d="M459.166 170.35l-9.297 5.916a.965.965 0 0 1-1.463-.614h-.002l-5.48-25.61a.97.97 0 0 1 .443-1.026l9.32-5.995a.968.968 0 0 1 1.472.628l5.49 25.65a.968.968 0 0 1-.484 1.05zm-9.16 3.54l7.61-4.844-5.058-23.642-7.603 4.89 5.05 23.597zm4.15-30.256l.004.014-.003-.014z"/><path class="animate-right-2" fill-rule="evenodd" clip-rule="evenodd" fill="#D6CFD5" d="M480.83 171.985l-22.127-2.486-4.998-26.86 22.414 5.42z"/><path fill-rule="evenodd" class="animate-right" clip-rule="evenodd" fill="#12100D" d="M480.678 172.94l-22.08-2.48a.97.97 0 0 1-.853-.834l-4.99-26.813a.967.967 0 0 1 1.19-1.11l22.4 5.42c.38.09.65.394.722.752h.002l4.71 23.926a.968.968 0 0 1-1.102 1.14zm-21.157-4.322l20.105 2.26-4.336-22.025-20.362-4.925 4.593 24.69z"/><path fill-rule="evenodd" class="animate-right" clip-rule="evenodd" fill="#D6CFD5" d="M527.358 177.91l-22-1.884-4.5-24.54 22.23 4.573z"/><path fill-rule="evenodd" class="animate-right-2" clip-rule="evenodd" fill="#17120E" d="M527.278 178.875l-22-1.884a.97.97 0 0 1-.883-.86l-4.488-24.47a.967.967 0 0 1 1.168-1.115l22.207 4.567c.394.08.683.39.755.76h.002l4.268 21.853a.967.967 0 0 1-1.03 1.15zm-21.103-3.75l19.987 1.71-3.9-19.96-20.196-4.155 4.11 22.404z"/><path fill-rule="evenodd" class="animate-right-2" clip-rule="evenodd" fill="#D6CFD5" d="M530.704 195.462l-21.433.75-3.94-21.913 21.61 1.656z"/><path fill-rule="evenodd" class="animate-right" clip-rule="evenodd" fill="#12100D" d="M530.68 196.43l-21.38.746a.965.965 0 0 1-.985-.826l-3.935-21.88a.966.966 0 0 1 1.02-1.134v-.002l21.61 1.657a.97.97 0 0 1 .886.82l3.758 19.47a.967.967 0 0 1-.974 1.15zm-20.608-1.213l19.47-.68-3.412-17.673-19.63-1.505 3.572 19.857z"/><path fill-rule="evenodd" class="animate-right" clip-rule="evenodd" fill="#D6CFD5" d="M486.043 199.208l-20.37 2.86-7.16-32.188 22.317 2.105z"/><path fill-rule="evenodd" class="animate-right-2" clip-rule="evenodd" fill="#12100D" d="M486.146 200.17l-20.34 2.856a.967.967 0 0 1-1.087-.798l-7.15-32.14a.965.965 0 0 1 1.033-1.168l22.317 2.105c.438.04.78.368.857.78h.002l5.212 27.222a.967.967 0 0 1-.846 1.143zm-19.724.817l18.48-2.595-4.886-25.514-20.273-1.912 6.68 30.02z"/><path class="animate-left-2" fill-rule="evenodd" clip-rule="evenodd" fill="#D6CFD5" d="M448.7 175.59l-9.327 6.084-5.313-24.828 9.342-6.008z"/><path class="animate-left-2" fill-rule="evenodd" clip-rule="evenodd" fill="#12100D" d="M449.184 176.43l-9.284 6.054a.965.965 0 0 1-1.47-.61h-.002l-5.313-24.828a.968.968 0 0 1 .443-1.027l9.323-5.996a.967.967 0 0 1 1.472.627l5.295 24.74a.972.972 0 0 1-.463 1.04zm-9.16 3.667l7.592-4.95-4.867-22.74-7.605 4.89 4.88 22.8zm4.325-29.46l.002.015-.003-.014z"/><path class="animate-left" fill-rule="evenodd" clip-rule="evenodd" fill="#D6CFD5" d="M438.67 182.05l-9.143 5.82-5.22-24.394 9.13-5.872z"/><path class="animate-left" fill-rule="evenodd" clip-rule="evenodd" fill="#12100D" d="M439.13 182.9l-9.084 5.782a.965.965 0 0 1-1.463-.614h-.002l-5.22-24.393a.968.968 0 0 1 .444-1.027l9.11-5.86a.967.967 0 0 1 1.47.63l5.23 24.432a.966.966 0 0 1-.483 1.05zm-8.948 3.408l7.4-4.71-4.8-22.423-7.39 4.753 4.79 22.38zm4.2-28.904l.004.014-.003-.014z"/><path class="animate-left" fill-rule="evenodd" clip-rule="evenodd" fill="#D6CFD5" d="M429.208 188.408l-8.9 5.385-5.11-23.86 8.84-5.686z"/><path class="animate-left" fill-rule="evenodd" clip-rule="evenodd" fill="#12100D" d="M429.708 189.237l-8.902 5.385a.97.97 0 0 1-1.454-.662l-5.1-23.828a.97.97 0 0 1 .444-1.027l8.818-5.672a.967.967 0 0 1 1.472.626l5.168 24.146a.97.97 0 0 1-.446 1.03zm-8.74 3.025l7.15-4.326-4.734-22.12-7.1 4.567 4.684 21.88zm4.015-28.216l.003.014-.003-.014z"/><path class="animate-left-2" fill-rule="evenodd" clip-rule="evenodd" fill="#D6CFD5" d="M419.92 194.146l-8.616 5.484-5.05-23.592 8.61-5.536z"/><path class="animate-left" fill-rule="evenodd" clip-rule="evenodd" fill="#12100D" d="M420.384 194.996l-8.56 5.448a.966.966 0 0 1-1.464-.614h-.002l-5.05-23.59a.968.968 0 0 1 .445-1.028l8.588-5.523a.967.967 0 0 1 1.472.627l5.056 23.63a.97.97 0 0 1-.484 1.05zm-8.425 3.074l6.875-4.376-4.626-21.62-6.87 4.416 4.62 21.58zm3.85-27.768l.002.014-.003-.014z"/><path class="animate-left-2" fill-rule="evenodd" clip-rule="evenodd" fill="#D6CFD5" d="M410.872 199.52l-8.45 5.38-4.952-23.14 8.44-5.43z"/><g clip-rule="evenodd"><path class="animate-left-2" fill-rule="evenodd" fill="#12100D" d="M411.334 200.37l-8.394 5.343a.966.966 0 0 1-1.463-.613h-.002l-4.95-23.14a.967.967 0 0 1 .443-1.026l8.42-5.417a.966.966 0 0 1 1.47.627l4.96 23.176c.09.43-.118.85-.484 1.05zm-8.258 2.968l6.71-4.27-4.53-21.168-6.7 4.31 4.52 21.128zm3.78-27.208l.002.014-.003-.014z"/><path class="animate-left" fill="none" stroke="#12100D" stroke-width=".216" stroke-miterlimit="22.926" d="M411.334 200.37l-8.394 5.343a.966.966 0 0 1-1.463-.613h-.002l-4.95-23.14a.967.967 0 0 1 .443-1.026l8.42-5.417a.966.966 0 0 1 1.47.627l4.96 23.176c.09.43-.118.85-.484 1.05zm-8.258 2.968l6.71-4.27-4.53-21.168-6.7 4.31 4.52 21.128zm3.78-27.208l.002.014"/></g><path class="animate-left-2" fill-rule="evenodd" clip-rule="evenodd" fill="#D6CFD5" d="M465.674 202.068l-9.855 3.608-6.303-29.45 9.243-6.466z"/><path class="animate-left" fill-rule="evenodd" clip-rule="evenodd" fill="#12100D" d="M466.007 202.977l-9.854 3.608a.968.968 0 0 1-1.287-.743l-6.296-29.417a.967.967 0 0 1 .45-1.03l9.187-6.427a.965.965 0 0 1 1.496.59h.002l6.914 32.31a.968.968 0 0 1-.613 1.11zm-9.475 1.408l8.02-2.936-6.434-30.064-7.522 5.262 5.936 27.737z"/><path class="animate-left-2" fill-rule="evenodd" clip-rule="evenodd" fill="#D6CFD5" d="M455.427 205.76l-10.003 4.185-5.9-27.564 9.343-6.007z"/><path class="animate-left" fill-rule="evenodd" clip-rule="evenodd" fill="#12100D" d="M455.798 206.653l-10.003 4.185a.968.968 0 0 1-1.318-.694l-5.9-27.562a.97.97 0 0 1 .445-1.027l9.322-5.995a.967.967 0 0 1 1.478.662l6.547 29.332a.965.965 0 0 1-.572 1.1zm-9.672 1.95l8.183-3.422-6.082-27.246-7.617 4.898 5.516 25.77zm-1.648 1.543v-.002.002z"/><path class="animate-left-2" fill-rule="evenodd" clip-rule="evenodd" fill="#D6CFD5" d="M444.635 209.93l-9.56 3.864-5.47-25.565 9.127-5.874z"/><path class="animate-left" fill-rule="evenodd" clip-rule="evenodd" fill="#12100D" d="M444.96 210.84l-9.524 3.85a.966.966 0 0 1-1.305-.696l-5.473-25.566a.97.97 0 0 1 .444-1.027l9.11-5.86a.968.968 0 0 1 1.47.628l5.9 27.56a.966.966 0 0 1-.62 1.112zm-9.18 1.627l7.74-3.13-5.44-25.412-7.39 4.754 5.09 23.787zm3.9-30.31l.002.013-.003-.014z"/><path class="animate-left-2" fill-rule="evenodd" clip-rule="evenodd" fill="#D6CFD5" d="M434.672 213.942l-9.236 3.822-5.023-23.47 8.84-5.685z"/><path class="animate-left" fill-rule="evenodd" clip-rule="evenodd" fill="#12100D" d="M434.99 214.854l-9.187 3.802a.966.966 0 0 1-1.313-.693l-5.024-23.47a.97.97 0 0 1 .444-1.027l8.82-5.672a.967.967 0 0 1 1.47.627l5.418 25.32a.966.966 0 0 1-.627 1.114zm-8.85 1.574l7.42-3.07-4.96-23.18-7.102 4.567 4.64 21.683zm4.058-28.02l.003.015-.002-.014z"/><path class="animate-left-2" fill-rule="evenodd" clip-rule="evenodd" fill="#D6CFD5" d="M425.05 218.117l-9.034 3.53-4.63-21.638 8.606-5.537z"/><path class="animate-left-2" fill-rule="evenodd" clip-rule="evenodd" fill="#12100D" d="M425.403 219.018l-9.036 3.53a.967.967 0 0 1-1.302-.718l-4.626-21.62a.968.968 0 0 1 .442-1.027l8.587-5.523a.966.966 0 0 1 1.47.627l5.056 23.63c.1.47-.16.932-.593 1.1zm-8.68 1.315l7.21-2.817-4.593-21.473-6.868 4.417 4.252 19.873zm4.215-26.06l.003.013-.002-.014z"/><path class="animate-left" fill-rule="evenodd" clip-rule="evenodd" fill="#D6CFD5" d="M415.667 221.928l-8.785 3.815-4.366-20.404 8.44-5.43z"/><path class="animate-left-2" fill-rule="evenodd" clip-rule="evenodd" fill="#12100D" d="M415.988 222.84l-8.724 3.788a.965.965 0 0 1-1.327-.685h-.002l-4.366-20.403a.97.97 0 0 1 .443-1.027l8.42-5.415a.967.967 0 0 1 1.472.627l4.708 22.003a.967.967 0 0 1-.625 1.112zm-8.407 1.548l6.976-3.03-4.252-19.876-6.702 4.31 3.98 18.596zm4.322-24.677l.003.015-.003-.014z"/><path class="animate-left-2" fill-rule="evenodd" clip-rule="evenodd" fill="#D6CFD5" d="M402.18 204.597l-8.1 5.156-4.748-22.184 8.09-5.204z"/><path class="animate-left" fill-rule="evenodd" clip-rule="evenodd" fill="#12100D" d="M402.64 205.446l-8.043 5.12a.965.965 0 0 1-1.462-.613h-.002l-4.747-22.183a.97.97 0 0 1 .443-1.027l8.07-5.19a.966.966 0 0 1 1.47.627l4.754 22.217a.965.965 0 0 1-.483 1.05zm-7.907 2.746l6.36-4.048-4.325-20.208-6.352 4.085 4.317 20.172zm3.635-26.026l.003.014-.002-.014z"/><path class="animate-left" fill-rule="evenodd" clip-rule="evenodd" fill="#D6CFD5" d="M394.074 209.78l-8.083 5.144-4.735-22.13 8.073-5.193z"/><path class="animate-left-2" fill-rule="evenodd" clip-rule="evenodd" fill="#12100D" d="M394.537 210.63l-8.027 5.108a.967.967 0 0 1-1.463-.613h-.002l-4.736-22.132a.968.968 0 0 1 .443-1.027l8.053-5.18a.967.967 0 0 1 1.47.628l4.745 22.166a.97.97 0 0 1-.483 1.05zm-7.89 2.734l6.342-4.036-4.315-20.158-6.334 4.074 4.306 20.12zm3.627-25.964l.003.014-.003-.014z"/><path class="animate-left" fill-rule="evenodd" clip-rule="evenodd" fill="#D6CFD5" d="M406.198 225.433l-7.71 3.013-3.953-18.468 7.345-4.724z"/><path class="animate-left-2" fill-rule="evenodd" clip-rule="evenodd" fill="#12100D" d="M406.55 226.334l-7.712 3.013a.965.965 0 0 1-1.302-.72l-3.947-18.45a.968.968 0 0 1 .443-1.026l7.324-4.71a.967.967 0 0 1 1.47.627l4.316 20.166c.1.47-.16.932-.593 1.1zm-7.356.797l5.886-2.3-3.854-18.006-5.605 3.605 3.574 16.7zm3.632-22.076l.003.013-.004-.013z"/><path class="animate-left-2" fill-rule="evenodd" clip-rule="evenodd" fill="#D6CFD5" d="M398.583 229.975l-7.825 3.398-3.89-18.176 7.518-4.836z"/><path class="animate-left" fill-rule="evenodd" clip-rule="evenodd" fill="#12100D" d="M398.904 230.887l-7.764 3.372a.965.965 0 0 1-1.326-.687h-.002l-3.89-18.176a.97.97 0 0 1 .442-1.027l7.5-4.823a.966.966 0 0 1 1.47.626l4.194 19.6a.967.967 0 0 1-.624 1.114zm-7.448 1.13l6.016-2.612-3.74-17.474-5.78 3.72 3.504 16.368zm3.876-21.856l.003.014-.003-.013z"/><path class="animate-left-2" fill-rule="evenodd" clip-rule="evenodd" fill="#D6CFD5" d="M385.586 214.942l-6.9 4.703-4.476-20.91 6.892-4.747z"/><path class="animate-left-2" fill-rule="evenodd" clip-rule="evenodd" fill="#12100D" d="M386.113 215.753l-6.883 4.69a.967.967 0 0 1-1.49-.598l-4.476-20.91a.968.968 0 0 1 .442-1.025l6.847-4.717a.966.966 0 0 1 1.494.595l4.485 20.954a.966.966 0 0 1-.42 1.01zm-6.783 2.283l5.175-3.527-4.045-18.906-5.168 3.56 4.038 18.872z"/><path class="animate-left" fill-rule="evenodd" clip-rule="evenodd" fill="#D6CFD5" d="M378.458 219.802l-7.72 4.913-4.523-21.137 7.71-4.96z"/><path class="animate-left" fill-rule="evenodd" clip-rule="evenodd" fill="#12100D" d="M378.92 220.65l-7.663 4.878a.967.967 0 0 1-1.463-.613h-.002l-4.523-21.137a.97.97 0 0 1 .442-1.027l7.69-4.946a.966.966 0 0 1 1.472.627l4.53 21.17a.965.965 0 0 1-.484 1.05zm-7.526 2.504l5.98-3.805-4.1-19.163-5.972 3.842 4.092 19.124zm3.478-24.736l.003.014-.003-.014z"/><path class="animate-left" fill-rule="evenodd" clip-rule="evenodd" fill="#D6CFD5" d="M390.25 234.068l-7.846 2.96-3.71-17.342 7.502-4.566z"/><path class="animate-left-2" fill-rule="evenodd" clip-rule="evenodd" fill="#12100D" d="M390.563 234.983l-7.817 2.95a.968.968 0 0 1-1.287-.705l-3.712-17.342a.967.967 0 0 1 .477-1.046l7.47-4.544a.967.967 0 0 1 1.448.624l4.054 18.948a.967.967 0 0 1-.634 1.115zm-7.448.744l6.016-2.27-3.595-16.803-5.752 3.5 3.332 15.573z"/><path class="animate-left-2" fill-rule="evenodd" clip-rule="evenodd" fill="#D6CFD5" d="M382.095 236.795l-7.7 3.106-3.29-15.376 7.44-4.322z"/><path class="animate-left" fill-rule="evenodd" clip-rule="evenodd" fill="#12100D" d="M382.42 237.706l-7.664 3.092a.966.966 0 0 1-1.304-.697l-3.29-15.375a.968.968 0 0 1 .485-1.05l7.414-4.31a.966.966 0 0 1 1.43.637l3.55 16.594c.102.478-.17.95-.62 1.11zm-7.318.87l5.877-2.372-3.102-14.496-5.68 3.3 2.904 13.567z"/><path class="animate-left" fill-rule="evenodd" clip-rule="evenodd" fill="#D6CFD5" d="M370.28 224.716l-6.322 4.518-4.39-20.52 6.31-4.564z"/><path class="animate-left" fill-rule="evenodd" clip-rule="evenodd" fill="#12100D" d="M370.81 225.525l-6.292 4.497a.967.967 0 0 1-1.506-.587l-4.392-20.52a.97.97 0 0 1 .43-1.02l6.263-4.53a.966.966 0 0 1 1.508.584h.003l4.402 20.564a.966.966 0 0 1-.416 1.01zm-6.215 2.066l4.606-3.29-3.958-18.5-4.6 3.326 3.953 18.465zm-5.543-19.695l.314-.127a.935.935 0 0 0-.314.127z"/><path class="animate-left" fill-rule="evenodd" clip-rule="evenodd" fill="#D6CFD5" d="M363.44 228.817l-7.355 4.68-4.308-20.134 7.345-4.723z"/><path class="animate-left" fill-rule="evenodd" clip-rule="evenodd" fill="#12100D" d="M363.9 229.667l-7.296 4.643a.966.966 0 0 1-1.463-.614l-4.31-20.133a.97.97 0 0 1 .444-1.027l7.325-4.71a.967.967 0 0 1 1.47.628l4.315 20.163a.965.965 0 0 1-.484 1.05zm-7.16 2.27l5.613-3.573-3.885-18.154-5.606 3.604 3.878 18.122zm3.327-23.497l.003.014-.003-.014z"/><path class="animate-left-2" fill-rule="evenodd" clip-rule="evenodd" fill="#D6CFD5" d="M373.938 240.31l-7.062 2.55-3.014-14.077 6.785-3.854z"/><path class="animate-left" fill-rule="evenodd" clip-rule="evenodd" fill="#12100D" d="M374.206 241.24l-7.004 2.53a.966.966 0 0 1-1.27-.71l-3.014-14.077a.968.968 0 0 1 .513-1.066l6.742-3.828a.966.966 0 0 1 1.422.638l3.293 15.38a.972.972 0 0 1-.68 1.132zm-6.616.337l5.227-1.887-2.84-13.27-5.02 2.853 2.633 12.304z"/><path class="animate-left-2" fill-rule="evenodd" clip-rule="evenodd" fill="#D6CFD5" d="M366.34 241.72l-7.89 2.82-2.556-11.94 7.69-3.767z"/><path class="animate-left" fill-rule="evenodd" clip-rule="evenodd" fill="#12100D" stroke="#12100D" stroke-width=".216" stroke-miterlimit="22.926" d="M366.666 242.63l-7.89 2.822a.968.968 0 0 1-1.282-.76L354.95 232.8a.968.968 0 0 1 .58-1.098l7.63-3.736a.965.965 0 0 1 1.368.667h.002l2.757 12.886a.97.97 0 0 1-.62 1.11zm-7.502.626l6.053-2.164-2.32-10.85-5.9 2.89 2.167 10.124z"/><path class="animate-left-2" fill-rule="evenodd" clip-rule="evenodd" fill="#D6CFD5" d="M355.705 232.368l-7.354 4.68-4.308-20.134 7.345-4.723z"/><path class="animate-left-2" fill-rule="evenodd" clip-rule="evenodd" fill="#12100D" d="M356.167 233.217l-7.297 4.644a.965.965 0 0 1-1.462-.612h-.002l-4.31-20.133a.97.97 0 0 1 .444-1.027l7.324-4.71a.967.967 0 0 1 1.47.628l4.316 20.163a.965.965 0 0 1-.483 1.047zm-7.16 2.27l5.61-3.572-3.884-18.154-5.605 3.606 3.878 18.12zm3.326-23.497l.003.014-.003-.014z"/><path class="animate-left" fill-rule="evenodd" clip-rule="evenodd" fill="#D6CFD5" d="M358.605 245.27l-7.89 2.82-2.556-11.94 7.688-3.766z"/><path class="animate-left-2" fill-rule="evenodd" clip-rule="evenodd" fill="#12100D" d="M358.93 246.182l-7.89 2.822a.968.968 0 0 1-1.28-.76l-2.546-11.894a.968.968 0 0 1 .582-1.097l7.63-3.735a.965.965 0 0 1 1.367.666h.002l2.757 12.886a.97.97 0 0 1-.62 1.112zm-7.502.626l6.053-2.165-2.32-10.848-5.898 2.89 2.166 10.123z"/><path class="animate-left-2" fill-rule="evenodd" clip-rule="evenodd" fill="#D6CFD5" d="M348.02 235.87l-3.905 3.94-4.308-20.132 3.894-3.986z"/><path class="animate-left" fill-rule="evenodd" clip-rule="evenodd" fill="#17120E" d="M348.674 236.58l-3.874 3.912a.967.967 0 0 1-1.63-.48h-.002l-4.31-20.134a.964.964 0 0 1 .287-.906l3.863-3.954a.966.966 0 0 1 1.637.473l4.32 20.177a.962.962 0 0 1-.29.913zm-3.987 1.28l2.277-2.3-3.832-17.904-2.272 2.325 3.827 17.88z"/><path class="animate-left" fill-rule="evenodd" clip-rule="evenodd" fill="#D6CFD5" d="M350.863 248.783l-4.385 2.07-2.555-11.94 4.182-3.016z"/><path class="animate-left-2" fill-rule="evenodd" clip-rule="evenodd" fill="#17120E" d="M351.244 249.672l-4.353 2.056a.967.967 0 0 1-1.357-.674l-2.555-11.94a.97.97 0 0 1 .433-1.02l4.132-2.98a.965.965 0 0 1 1.51.584l2.758 12.886a.968.968 0 0 1-.566 1.088zm-4.076-.213l2.588-1.223-2.288-10.69-2.468 1.78 2.168 10.132z"/><path class="animate-left-2" fill-rule="evenodd" clip-rule="evenodd" fill="#12100D" d="M451.112 130.522L339.04 216.09l1.225 5.732 113.44-79.183z"/><path class="animate-left" fill-rule="evenodd" clip-rule="evenodd" fill="#12100D" d="M450.486 132.217l-110.374 84.27.794 3.71 111.72-77.98-2.14-10zM338.452 215.32l112.05-85.547a.965.965 0 0 1 1.556.55l2.593 12.116a.965.965 0 0 1-.393.99l-113.384 79.145a.966.966 0 0 1-1.554-.552l-1.228-5.733a.97.97 0 0 1 .36-.97z"/><path class="animate-left" fill-rule="evenodd" clip-rule="evenodd" fill="#D6CFD5" d="M465.73 202.33l-120.293 47.473.376 1.76 120.604-45.702z"/><path class="animate-left-2" fill-rule="evenodd" clip-rule="evenodd" fill="#12100D" d="M465.002 203.656l-108.61 42.863 108.92-41.274-.31-1.59zm-119.918 45.246l120.273-47.466a.967.967 0 0 1 1.32.71l.69 3.532h-.002a.967.967 0 0 1-.608 1.085l-120.572 45.688a.966.966 0 0 1-1.32-.692l-.372-1.746a.968.968 0 0 1 .59-1.113z"/><path fill-rule="evenodd" class="animate-right-2" clip-rule="evenodd" fill="#12100D" d="M476.12 148.06l-22.107-5.895-2.594-12.117 21.94 5.115z"/><path class="animate-right-2" fill-rule="evenodd" clip-rule="evenodd" fill="#12100D" d="M475.84 148.986l-22.073-5.887a.965.965 0 0 1-.7-.735l-2.594-12.116a.968.968 0 0 1 1.166-1.143l21.94 5.115c.39.09.67.406.733.78l2.752 12.86a.968.968 0 0 1-.745 1.146.982.982 0 0 1-.48-.022zm-21.006-7.603l20.01 5.336-2.3-10.754-19.86-4.63 2.15 10.047z"/><path class="animate-right" fill-rule="evenodd" clip-rule="evenodd" fill="#12100D" d="M524.048 157.05l-22.893-5.102-1.643-8.54 22.36 4.234z"/><path fill-rule="evenodd" class="animate-right-2" clip-rule="evenodd" fill="#12100D" d="M523.783 157.98l-22.836-5.09a.965.965 0 0 1-.74-.76h-.002l-1.644-8.54a.966.966 0 0 1 1.173-1.123l22.316 4.225c.39.073.68.37.764.734l2.177 9.407a.967.967 0 0 1-1.207 1.146zm-21.798-6.836l20.775 4.63-1.688-7.3-20.342-3.852 1.255 6.522z"/><path fill-rule="evenodd" class="animate-bottom-2" clip-rule="evenodd" fill="#D6CFD5" d="M531.69 198.63l-21.554 1.15-.56-3.457 21.192-1.238z"/><path fill-rule="evenodd" class="animate-bottom" clip-rule="evenodd" fill="#12100D" d="M531.74 199.596l-21.555 1.15a.967.967 0 0 1-1.01-.844l-.553-3.428a.964.964 0 0 1 .9-1.115v-.002l21.192-1.238c.48-.026.9.305.998.76l.912 3.508a.966.966 0 0 1-.885 1.208zm-20.79-.826l19.508-1.04-.425-1.634-19.332 1.13.25 1.544z"/><path fill-rule="evenodd" class="animate-bottom" clip-rule="evenodd" fill="#D6CFD5" d="M486.616 201.947l-20.282 3.523-.66-3.402 20.37-2.86z"/><path fill-rule="evenodd" class="animate-right-2" clip-rule="evenodd" fill="#12100D" d="M486.78 202.9l-20.284 3.524a.967.967 0 0 1-1.116-.79v-.005l-.656-3.38a.966.966 0 0 1 .846-1.142l20.342-2.856a.967.967 0 0 1 1.083.785l.568 2.715a.967.967 0 0 1-.75 1.143l-.033.006zm-19.677 1.454l18.363-3.19-.184-.873-18.465 2.593.286 1.47z"/><path fill-rule="evenodd" clip-rule="evenodd" class="animate-bottom-2" fill="#C9B79A" d="M510.61 239.533l-15.598 3.38-24.13-125.045 11.485-10.316z"/><path fill-rule="evenodd" class="animate-bottom" clip-rule="evenodd" fill="#12100D" d="M510.816 240.48l-15.6 3.38a.967.967 0 0 1-1.15-.742l-.012-.058-24.12-125.01a.97.97 0 0 1 .302-.9l11.485-10.317a.966.966 0 0 1 1.598.542l28.24 131.958a.967.967 0 0 1-.742 1.146zm-15.043 1.278l13.69-2.967L481.77 109.39l-9.834 8.834 23.837 123.536z"/><path class="animate-right" fill-rule="evenodd" clip-rule="evenodd" fill="#12100D" d="M518.617 237.996l-7.95.926-27.673-132.054 10.14 6.32z"/><path fill-rule="evenodd" class="animate-bottom" clip-rule="evenodd" fill="#12100D" d="M518.728 238.957l-7.952.926a.968.968 0 0 1-1.065-.808l-27.66-132.01a.967.967 0 0 1 1.455-1.018l10.14 6.32c.253.157.407.41.447.682l25.473 124.753a.965.965 0 0 1-.753 1.14c-.027.005-.056.01-.083.013h-.002zm-7.298-1.098l6.03-.703-25.188-123.365-7.867-4.904 27.025 128.97z"/><path class="animate-right-2" fill-rule="evenodd" clip-rule="evenodd" fill="#12100D" d="M559.918 227.21l-7.394 1.624-21.566-103.523 9.75 6.407z"/><path class="animate-bottom-2" fill-rule="evenodd" clip-rule="evenodd" fill="#12100D" d="M560.123 228.157l-7.395 1.624a.967.967 0 0 1-1.15-.74l-.01-.06-21.557-103.472a.967.967 0 0 1 1.523-.973l9.702 6.375a.962.962 0 0 1 .416.617h.002l19.21 95.494a.964.964 0 0 1-.74 1.133v.004zm-6.852-.477l5.516-1.21L539.84 132.3l-7.46-4.9 20.89 100.278z"/><path fill-rule="evenodd" clip-rule="evenodd" class="animate-bottom-2" fill="#C9B79A" d="M552.214 229.293l-12.865 2.796-21.094-97.495 12.683-8.53z"/><path fill-rule="evenodd" class="animate-bottom" clip-rule="evenodd" fill="#12100D" d="M552.42 230.24l-12.866 2.795a.97.97 0 0 1-1.15-.742L517.31 134.8a.968.968 0 0 1 .464-1.044l12.63-8.493a.966.966 0 0 1 1.487.634L553.16 229.1a.967.967 0 0 1-.74 1.138zm-12.33.698l10.985-2.387-20.79-100.88-10.944 7.36 20.75 95.908z"/><path class="animate-left" fill-rule="evenodd" clip-rule="evenodd" fill="#EBE7EB" d="M452.166 129.89l30.2-22.338 5.208 23.468 23.092 107.902-15.654 3.992-21.653-107.75z"/><path class="animate-left-2" fill-rule="evenodd" clip-rule="evenodd" fill="#EBE7EB" d="M500.366 142.722l30.51-17.09 4.48 21.988 16.15 81.187-12.22 2.848L521.7 146.74z"/><path fill-rule="evenodd" class="animate-bottom" clip-rule="evenodd" fill="#12100D" d="M499.894 141.878l30.51-17.09a.966.966 0 0 1 1.432.713l4.468 21.926v.008h.004l16.147 81.187a.968.968 0 0 1-.733 1.13l-12.217 2.847a.968.968 0 0 1-1.178-.81l-17.44-84.22-20.698-3.896a.967.967 0 0 1-.296-1.792zm30.3-14.755l-27.032 15.142 18.718 3.524c.375.07.688.36.77.755l17.38 83.94 10.344-2.41-15.966-80.27h.002l-4.215-20.682z"/><path fill-rule="evenodd" class="animate-left" clip-rule="evenodd" fill="#D6CFD5" d="M486.046 202.458l-125.454 46.467-14.846 3.202 120.596-46.245z"/><path fill-rule="evenodd" class="animate-bottom-2" clip-rule="evenodd" fill="#12100D" d="M486.37 203.37l-125.445 46.464a.898.898 0 0 1-.165.045l-14.814 3.194a.968.968 0 0 1-.544-1.85L466 204.978c.07-.026.14-.045.212-.055l19.672-3.417a.968.968 0 0 1 .485 1.865zm-126.054 44.625l115.49-42.775-9.204 1.6-108.782 41.714 2.496-.54z"/><path fill-rule="evenodd" class="animate-left-2" clip-rule="evenodd" fill="#D6CFD5" d="M489.117 216.576L370.505 248.68l-4.083-2.203 119.624-44.02z"/><path fill-rule="evenodd" clip-rule="evenodd" class="animate-left" fill="#12100D" d="M489.345 217.517l-118.59 32.098a.966.966 0 0 1-.735-.098l-4.055-2.19a.97.97 0 0 1 .125-1.76l119.624-44.017a.967.967 0 0 1 1.28.704l3.07 14.117a.968.968 0 0 1-.72 1.147zm-118.72 30.13l117.35-31.764-2.638-12.132-116.568 42.895 1.854 1z"/><path fill-rule="evenodd" clip-rule="evenodd" fill="#D6CFD5" d="M564.533 239.23l-28.522 6.103-2.457-11.484 27.965-6.804z"/><path fill-rule="evenodd" clip-rule="evenodd" fill="#17120E" d="M564.734 240.175l-28.522 6.104a.968.968 0 0 1-1.146-.747l-2.458-11.484a.966.966 0 0 1 .745-1.147l.022-.005 27.915-6.79a.966.966 0 0 1 1.165.707L565.473 239a.965.965 0 0 1-.707 1.168l-.03.007zm-27.98 4.01l26.602-5.693-2.546-10.28-26.114 6.352 2.06 9.62z"/><path fill-rule="evenodd" clip-rule="evenodd" fill="#D6CFD5" d="M523.713 249.19l-32.433 6.942-2.373-11.094 31.48-7.555z"/><path fill-rule="evenodd" clip-rule="evenodd" fill="#17120E" d="M523.913 250.137l-32.432 6.94a.968.968 0 0 1-1.146-.745l-2.373-11.095a.968.968 0 0 1 .746-1.146l.04-.006 31.42-7.54a.966.966 0 0 1 1.15.678h.002l3.325 11.707a.966.966 0 0 1-.73 1.207zm-31.89 4.847l30.477-6.522-2.79-9.824-29.66 7.117 1.974 9.23z"/><g fill-rule="evenodd" clip-rule="evenodd" fill="#DF0A15"><path class="animate-bottom-3" d="M167.986 244.604l-8.752 1.183 5.62 33.9-11.317 1.53-5.62-33.9-3.366.455-.957-5.772 3.366-.455c-.617-3.718-.017-6.606 1.824-8.628 1.838-2.036 5.496-3.425 10.973-4.166l5.478-.74.958 5.773-5.477.74c-2.19.297-2.996 2.13-2.44 5.49l8.754-1.183.956 5.774z"/><path class="animate-bottom-4" d="M201.135 243.066l-11.318 1.53L188 233.64c-.303-1.833-1.54-2.597-3.73-2.3-2.172.292-3.107 1.35-2.803 3.184l6.96 41.975-11.32 1.53-8.37-50.492 11.318-1.53.288 1.735c1.98-1.45 4.903-2.438 8.766-2.96 2.278-.31 4.43.205 6.486 1.526 2.07 1.317 3.3 3.253 3.723 5.8l1.815 10.956z"/><path class="animate-bottom-5" d="M207.208 265.262l-5.548-33.47c-.94-5.674 3.446-9.174 13.18-10.49 9.732-1.317 15.063.868 16.004 6.543l5.55 33.47c.978 5.908-3.392 9.518-13.125 10.834-9.734 1.317-15.082-.98-16.062-6.888zm17.867-2.416l-5.55-33.47c-.303-1.833-1.54-2.597-3.728-2.3-2.188.295-3.124 1.353-2.82 3.187l5.55 33.47c.3 1.82 1.54 2.584 3.727 2.288 2.187-.295 3.123-1.353 2.82-3.174z"/><path class="animate-bottom-6" d="M270.022 265.464l-11.318 1.53-6.96-41.975c-.303-1.834-1.54-2.598-3.73-2.302-2.172.293-3.107 1.35-2.802 3.185l6.958 41.975-11.317 1.53-8.37-50.49 11.317-1.532.288 1.736c1.98-1.452 4.903-2.438 8.766-2.96 2.28-.31 4.43.205 6.487 1.526 2.07 1.318 3.3 3.253 3.724 5.8l6.958 41.976z"/><path class="animate-bottom-7" d="M289.084 222.324l-8.753 1.184-1.792-10.82-11.318 1.53 1.794 10.82-3.365.456.956 5.773 3.366-.455 3.826 23.078c.618 3.73 2.128 6.32 4.546 7.78 2.416 1.448 6.363 1.808 11.84 1.067l5.48-.74-.958-5.773-5.48.74c-2.187.296-3.55-1.23-4.11-4.603l-3.827-23.08 8.752-1.182-.958-5.774z"/><path class="animate-bottom-8" d="M321.883 259.206l-11.198 1.514-8.372-50.492 11.198-1.515 8.373 50.493zM301.33 204.76c.205 1.23.926 2.23 2.18 3.003 1.272.784 2.676 1.06 4.245.848 1.554-.208 2.808-.832 3.774-1.893.952-1.048 1.327-2.232 1.107-3.56-.215-1.293-.938-2.303-2.138-3.022-1.202-.73-2.556-.988-4.065-.785-1.555.21-2.85.864-3.874 1.947-1.022 1.082-1.43 2.244-1.23 3.463z"/><path class="animate-bottom-9" d="M354.508 254.793l-11.318 1.53-6.96-41.974c-.303-1.834-1.54-2.598-3.73-2.302-2.172.293-3.106 1.35-2.803 3.185l6.96 41.974-11.318 1.53-8.373-50.49 11.318-1.532.288 1.736c1.98-1.45 4.903-2.437 8.766-2.96 2.278-.307 4.43.207 6.486 1.528 2.07 1.318 3.302 3.253 3.723 5.8l6.958 41.975z"/></g><path fill-rule="evenodd" clip-rule="evenodd" fill="#DF0A15" d="M139.105 303.096c-9.88 35.415-19.967 71.104-29.617 106.228-7.408 26.984-3.228 28.852 22.538 28.825l81.158-.084c4.508.46 7.994 1.878 9.823 4.84 3.225 5.22-.002 13.754-1.467 19.36l-3.8 14.537c-4.582 17.523 2.12 13.117 13.473 4.237 10.388-8.125 20.775-16.253 31.164-24.38 6.568-5.137 15.12-12.88 22.382-16.42a34.392 34.392 0 0 1 5.918-2.256l291.887-.302c19.383-.02 38.023 1.907 32.914-22.986-11.25-54.78-22.508-115.727-33.76-169.935-7.607-36.655-13.01-32.522-47.545-26.966-119.985 19.3-239.97 38.608-359.953 57.906-20.798 3.344-29.108 5.855-35.117 27.396z"/><g class="animate-scale" fill-rule="evenodd" clip-rule="evenodd" fill="#FFF"><path d="M199.56 393.465l-60.732-22.54-1.26-12.296 54.815-35.082 1.432 13.953-39.44 25.695 43.744 16.24zM202.403 371.956L223 369.943l1.826 17.788c.398 3.89 2.575 5.642 6.558 5.25 3.954-.385 5.733-2.522 5.333-6.412-.98-9.563-6.002-18.76-15.094-27.61-9.092-8.85-15.138-14.522-18.168-17.014-3-2.466-4.76-6.09-5.25-10.87l-1.31-12.77c-1.244-12.113 6.978-19.047 24.69-20.778 17.688-1.73 27.153 3.477 28.396 15.59l1.812 17.63-20.598 2.013-1.81-17.63c-.402-3.917-2.58-5.668-6.533-5.28-3.982.388-5.76 2.526-5.358 6.44.506 7.09 1.92 11.676 4.24 13.73 2.345 2.054 8.476 8.01 18.42 17.866 9.943 9.855 15.226 17.804 15.84 23.795l1.32 12.875c1.295 12.612-6.9 19.782-24.587 21.512-17.713 1.73-27.204-3.71-28.5-16.323l-1.822-17.788zM317.678 396.994l-20.597 2.014-.356-3.468c-1.3 3.284-5.97 5.334-14.072 6.126-11.974 1.17-18.425-2.765-19.354-11.802l-3.545-34.552c-.413-4.02.632-7.625 3.07-10.89 2.47-3.24 8.046-7.553 16.763-12.89 6.136-3.2 9.413-5.592 9.83-7.198l-1.53-14.923c-.403-3.915-2.58-5.666-6.562-5.277-3.955.388-5.76 2.527-5.358 6.443l1.69 16.474-20.597 2.013-1.69-16.474c-1.244-12.113 7.004-19.05 24.69-20.778 17.713-1.73 27.18 3.474 28.423 15.586l9.195 89.596zm-22.46-16.14l-4.033-39.282c-7.865 2.016-11.587 4.663-11.223 7.943l3.336 32.502c.4 3.89 2.604 5.64 6.558 5.25 3.982-.388 5.76-2.527 5.36-6.414zM408.623 387.432l-20.598 2.013-9.196-89.597c-.403-3.915-2.578-5.666-6.56-5.276-3.983.39-5.76 2.526-5.358 6.442l9.196 89.596-20.598 2.013-9.196-89.596c-.403-3.915-2.58-5.667-6.562-5.278-3.955.386-5.732 2.523-5.33 6.44l9.195 89.596-20.597 2.013-11.062-107.78 20.597-2.013.396 3.862c3.69-2.963 9.053-4.787 16.083-5.474 5.328-.52 10.87 1.034 16.646 4.61 3.56-4.49 8.318-7.05 14.332-7.638 3.98-.39 8 .386 12.11 2.32 4.083 1.935 6.536 6.657 7.304 14.146l9.197 89.598zM424.927 279.897l-.31-3.02-20.598 2.012 11.06 107.776 20.598-2.013-1.53-14.924c4.46 1.845 10.068 2.437 16.825 1.777 4.146-.405 7.743-1.845 10.787-4.344 3.048-2.475 4.158-7.6 3.357-15.403l-6.146-59.878c-.79-7.7-3.26-12.58-7.468-14.663-4.18-2.087-9.196-2.844-14.99-2.278-4.503.442-8.355 2.093-11.585 4.955zm13.448 14l6.146 59.878c.402 3.915-1.375 6.053-5.33 6.44-3.98.388-6.158-1.363-6.562-5.278l-6.145-59.88c-.402-3.915 1.376-6.052 5.358-6.44 3.956-.387 6.134 1.364 6.535 5.28zM526.653 376.57l-20.598 2.014-.355-3.468c-1.3 3.286-5.973 5.334-14.073 6.126-11.974 1.17-18.426-2.765-19.353-11.803l-3.547-34.552c-.412-4.02.633-7.625 3.07-10.89 2.47-3.24 8.047-7.553 16.764-12.89 6.136-3.2 9.414-5.592 9.83-7.198l-1.53-14.923c-.402-3.915-2.58-5.666-6.563-5.277-3.953.386-5.76 2.527-5.357 6.442l1.69 16.473-20.597 2.014-1.69-16.475c-1.244-12.112 7.004-19.05 24.69-20.777 17.713-1.732 27.18 3.474 28.423 15.586l9.197 89.597zm-22.462-16.14l-4.03-39.282c-7.865 2.016-11.587 4.663-11.223 7.944l3.336 32.5c.4 3.89 2.603 5.64 6.558 5.252 3.983-.39 5.76-2.528 5.36-6.415zM531.165 361.057l54.943-33.846-1.26-12.295-60.86-23.775 1.433 13.952 43.882 17.552-39.577 24.382z"/></g></svg>