<?xml version="1.0" encoding="utf-8"?>
<!-- Generator: Adobe Illustrator 19.2.1, SVG Export Plug-In . SVG Version: 6.00 Build 0)  -->
<svg version="1.1" id="Layer_1" xmlns="http://www.w3.org/2000/svg" xmlns:xlink="http://www.w3.org/1999/xlink" x="0px" y="0px"
	 viewBox="0 0 370.8 278.3" style="enable-background:new 0 0 370.8 278.3;" xml:space="preserve">
<style type="text/css">
	.st0{fill:#D6CFD5;}
	.st1{fill:#12100D;}
	.st2{fill:#17120E;}
	.st3{fill:none;stroke:#12100D;stroke-width:0.216;stroke-miterlimit:22.9256;}
	.st4{fill:#12100D;stroke:#12100D;stroke-width:0.216;stroke-miterlimit:22.9256;}
	.st5{fill:#C9B79A;}
	.st6{fill:#EBE7EB;}
	.st7{fill:#DF0A15;}
	.st8{fill:#FFFFFF;}
</style>
<g>
	<polygon class="st0" points="256.2,46.2 249.4,50.6 245.4,31.9 252.2,27.6 	"/>
	<g>
		<path class="st1" d="M256.5,46.8l-6.8,4.3c-0.3,0.2-0.8,0.1-1-0.2c0-0.1-0.1-0.2-0.1-0.2l0,0l-4-18.6c-0.1-0.3,0.1-0.6,0.3-0.7
			l6.8-4.4c0.3-0.2,0.8-0.1,1,0.2c0,0.1,0.1,0.2,0.1,0.2l4,18.6C257,46.4,256.8,46.7,256.5,46.8L256.5,46.8z M249.9,49.4l5.5-3.5
			l-3.7-17.2l-5.5,3.6L249.9,49.4L249.9,49.4z M252.9,27.4L252.9,27.4L252.9,27.4z"/>
	</g>
	<polygon class="st0" points="272.3,48 256.2,46.2 252.6,26.7 268.9,30.6 	"/>
	<path class="st1" d="M272.2,48.7l-16-1.8c-0.3,0-0.6-0.3-0.6-0.6l-3.6-19.5c-0.1-0.4,0.2-0.7,0.6-0.8c0.1,0,0.2,0,0.3,0L269,30
		c0.3,0.1,0.5,0.3,0.5,0.5h0l3.4,17.4c0.1,0.4-0.2,0.8-0.6,0.8C272.3,48.7,272.3,48.7,272.2,48.7L272.2,48.7z M256.8,45.6l14.6,1.6
		l-3.2-16l-14.8-3.6L256.8,45.6z"/>
	<polygon class="st0" points="306.1,52.3 290.1,51 286.8,33.1 303,36.5 	"/>
	<path class="st2" d="M306,53l-16-1.4c-0.3,0-0.6-0.3-0.6-0.6l-3.3-17.8c-0.1-0.4,0.2-0.7,0.6-0.8c0.1,0,0.2,0,0.3,0l16.1,3.3
		c0.3,0.1,0.5,0.3,0.5,0.6h0l3.1,15.9c0.1,0.4-0.2,0.8-0.6,0.8C306.2,53,306.1,53,306,53L306,53L306,53z M290.7,50.3l14.5,1.2
		L302.4,37l-14.7-3L290.7,50.3z"/>
	<polygon class="st0" points="308.5,65.1 293,65.6 290.1,49.7 305.8,50.9 	"/>
	<path class="st1" d="M308.5,65.8L293,66.3c-0.4,0-0.7-0.3-0.7-0.6l-2.9-15.9c-0.1-0.4,0.2-0.7,0.6-0.8c0.1,0,0.1,0,0.2,0v0
		l15.7,1.2c0.3,0,0.6,0.3,0.6,0.6l2.7,14.2c0.1,0.4-0.2,0.7-0.6,0.8C308.6,65.8,308.6,65.8,308.5,65.8L308.5,65.8z M293.5,64.9
		l14.2-0.5l-2.5-12.8l-14.3-1.1L293.5,64.9z"/>
	<polygon class="st0" points="276.1,67.8 261.3,69.9 256.1,46.5 272.3,48 	"/>
	<path class="st1" d="M276.2,68.5l-14.8,2.1c-0.4,0.1-0.7-0.2-0.8-0.6l-5.2-23.4c-0.1-0.4,0.2-0.8,0.5-0.8c0.1,0,0.1,0,0.2,0
		l16.2,1.5c0.3,0,0.6,0.3,0.6,0.6h0l3.8,19.8C276.8,68.1,276.6,68.4,276.2,68.5C276.2,68.5,276.2,68.5,276.2,68.5L276.2,68.5z
		 M261.8,69.1l13.4-1.9l-3.6-18.5L257,47.3L261.8,69.1z"/>
	<polygon class="st0" points="248.9,50.7 242.2,55.1 238.3,37 245.1,32.7 	"/>
	<g>
		<path class="st1" d="M249.3,51.3l-6.7,4.4c-0.3,0.2-0.8,0.1-1-0.2c0-0.1-0.1-0.2-0.1-0.2h0l-3.9-18c-0.1-0.3,0.1-0.6,0.3-0.7
			l6.8-4.4c0.3-0.2,0.8-0.1,1,0.2c0,0.1,0.1,0.2,0.1,0.2l3.8,18C249.7,50.8,249.5,51.1,249.3,51.3L249.3,51.3z M242.6,53.9l5.5-3.6
			l-3.5-16.5l-5.5,3.6L242.6,53.9L242.6,53.9z M245.8,32.5L245.8,32.5L245.8,32.5z"/>
	</g>
	<polygon class="st0" points="241.6,55.3 235,59.6 231.2,41.8 237.8,37.6 	"/>
	<g>
		<path class="st1" d="M242,56l-6.6,4.2c-0.3,0.2-0.8,0.1-1-0.2c0-0.1-0.1-0.2-0.1-0.2h0L230.5,42c-0.1-0.3,0.1-0.6,0.3-0.7l6.6-4.3
			c0.3-0.2,0.8-0.1,1,0.2c0,0.1,0.1,0.2,0.1,0.2l3.8,17.8C242.4,55.5,242.2,55.8,242,56L242,56z M235.5,58.4l5.4-3.4l-3.5-16.3
			l-5.4,3.5L235.5,58.4L235.5,58.4z M238.5,37.4L238.5,37.4L238.5,37.4z"/>
	</g>
	<polygon class="st0" points="234.8,60 228.3,63.9 224.6,46.5 231,42.4 	"/>
	<g>
		<path class="st1" d="M235.1,60.6l-6.5,3.9c-0.3,0.2-0.8,0.1-1-0.2c0-0.1-0.1-0.2-0.1-0.2l-3.7-17.3c-0.1-0.3,0.1-0.6,0.3-0.7
			l6.4-4.1c0.3-0.2,0.8-0.1,1,0.2c0,0.1,0.1,0.2,0.1,0.2l3.8,17.6C235.5,60.1,235.4,60.4,235.1,60.6L235.1,60.6L235.1,60.6z
			 M228.8,62.8l5.2-3.1l-3.4-16.1l-5.2,3.3L228.8,62.8L228.8,62.8z M231.7,42.3L231.7,42.3L231.7,42.3z"/>
	</g>
	<polygon class="st0" points="228,64.1 221.8,68.1 218.1,51 224.3,47 	"/>
	<g>
		<path class="st1" d="M228.4,64.8l-6.2,4c-0.3,0.2-0.8,0.1-1-0.2c0-0.1-0.1-0.2-0.1-0.2l0,0l-3.7-17.1c-0.1-0.3,0.1-0.6,0.3-0.7
			l6.2-4c0.3-0.2,0.8-0.1,1,0.2c0,0.1,0.1,0.2,0.1,0.2l3.7,17.2C228.8,64.3,228.6,64.6,228.4,64.8L228.4,64.8z M222.2,67l5-3.2
			l-3.4-15.7l-5,3.2L222.2,67L222.2,67z M225,46.8L225,46.8L225,46.8z"/>
	</g>
	<polygon class="st0" points="221.4,68 215.3,72 211.7,55.1 217.8,51.2 	"/>
	<g>
		<path class="st1" d="M221.8,68.7l-6.1,3.9c-0.3,0.2-0.8,0.1-1-0.2c0-0.1-0.1-0.2-0.1-0.2h0L211,55.3c-0.1-0.3,0.1-0.6,0.3-0.7
			l6.1-3.9c0.3-0.2,0.8-0.1,1,0.2c0,0.1,0.1,0.2,0.1,0.2l3.6,16.8C222.2,68.2,222,68.5,221.8,68.7L221.8,68.7z M215.8,70.8l4.9-3.1
			l-3.3-15.4l-4.9,3.1L215.8,70.8L215.8,70.8z M218.5,51L218.5,51L218.5,51z"/>
		<path class="st3" d="M221.8,68.7l-6.1,3.9c-0.3,0.2-0.8,0.1-1-0.2c0-0.1-0.1-0.2-0.1-0.2h0L211,55.3c-0.1-0.3,0.1-0.6,0.3-0.7
			l6.1-3.9c0.3-0.2,0.8-0.1,1,0.2c0,0.1,0.1,0.2,0.1,0.2l3.6,16.8C222.2,68.2,222,68.5,221.8,68.7L221.8,68.7z M215.8,70.8l4.9-3.1
			l-3.3-15.4l-4.9,3.1L215.8,70.8L215.8,70.8z M218.5,51L218.5,51"/>
	</g>
	<polygon class="st0" points="261.3,69.9 254.1,72.5 249.5,51.1 256.2,46.4 	"/>
	<path class="st1" d="M261.5,70.6l-7.2,2.6c-0.4,0.1-0.8-0.1-0.9-0.4c0,0,0-0.1,0-0.1l-4.6-21.4c-0.1-0.3,0.1-0.6,0.3-0.7l6.7-4.7
		c0.3-0.2,0.8-0.1,1,0.2c0.1,0.1,0.1,0.2,0.1,0.3h0l5,23.5C262,70.1,261.8,70.4,261.5,70.6L261.5,70.6L261.5,70.6z M254.6,71.6
		l5.8-2.1l-4.7-21.9l-5.5,3.8L254.6,71.6z"/>
	<polygon class="st0" points="253.8,72.6 246.6,75.6 242.3,55.6 249.1,51.2 	"/>
	<g>
		<path class="st1" d="M254.1,73.2l-7.3,3c-0.4,0.1-0.8,0-0.9-0.4c0,0,0-0.1,0-0.1l-4.3-20c-0.1-0.3,0.1-0.6,0.3-0.7l6.8-4.4
			c0.3-0.2,0.8-0.1,1,0.2c0.1,0.1,0.1,0.2,0.1,0.3l4.8,21.3C254.6,72.8,254.4,73.1,254.1,73.2L254.1,73.2L254.1,73.2z M247.1,74.6
			l5.9-2.5l-4.4-19.8l-5.5,3.6L247.1,74.6L247.1,74.6z M245.9,75.8L245.9,75.8L245.9,75.8z"/>
	</g>
	<polygon class="st0" points="246,75.6 239,78.4 235.1,59.8 241.7,55.6 	"/>
	<g>
		<path class="st1" d="M246.2,76.3l-6.9,2.8c-0.4,0.1-0.8,0-0.9-0.4c0,0,0-0.1,0-0.1h0l-4-18.6c-0.1-0.3,0.1-0.6,0.3-0.7l6.6-4.3
			c0.3-0.2,0.8-0.1,1,0.2c0,0.1,0.1,0.2,0.1,0.2l4.3,20C246.7,75.8,246.5,76.2,246.2,76.3L246.2,76.3z M239.5,77.5l5.6-2.3l-4-18.5
			l-5.4,3.5L239.5,77.5L239.5,77.5z M242.4,55.4L242.4,55.4L242.4,55.4z"/>
	</g>
	<polygon class="st0" points="238.7,78.5 232,81.3 228.4,64.2 234.8,60.1 	"/>
	<g>
		<path class="st1" d="M239,79.2l-6.7,2.8c-0.4,0.1-0.8,0-0.9-0.4c0,0,0-0.1,0-0.1h0l-3.7-17.1c-0.1-0.3,0.1-0.6,0.3-0.7l6.4-4.1
			c0.3-0.2,0.8-0.1,1,0.2c0,0.1,0.1,0.2,0.1,0.2l3.9,18.4C239.5,78.7,239.3,79.1,239,79.2L239,79.2z M232.5,80.3l5.4-2.2l-3.6-16.8
			l-5.2,3.3L232.5,80.3L232.5,80.3z M235.5,60L235.5,60L235.5,60z"/>
	</g>
	<polygon class="st0" points="231.7,81.6 225.2,84.1 221.8,68.4 228.1,64.4 	"/>
	<g>
		<path class="st1" d="M232,82.2l-6.6,2.6c-0.4,0.1-0.8,0-0.9-0.4c0,0,0-0.1,0-0.1l-3.4-15.7c-0.1-0.3,0.1-0.6,0.3-0.7l6.2-4
			c0.3-0.2,0.8-0.1,1,0.2c0,0.1,0.1,0.2,0.1,0.2l3.7,17.2C232.5,81.8,232.3,82.1,232,82.2L232,82.2z M225.7,83.2l5.2-2l-3.3-15.6
			l-5,3.2L225.7,83.2L225.7,83.2z M228.8,64.2L228.8,64.2L228.8,64.2z"/>
	</g>
	<polygon class="st0" points="224.9,84.3 218.5,87.1 215.4,72.3 221.5,68.3 	"/>
	<g>
		<path class="st1" d="M225.2,85l-6.3,2.8c-0.4,0.2-0.8,0-0.9-0.4c0,0,0-0.1,0-0.1h0l-3.2-14.8c-0.1-0.3,0.1-0.6,0.3-0.7l6.1-3.9
			c0.3-0.2,0.8-0.1,1,0.2c0,0.1,0.1,0.2,0.1,0.2l3.4,16C225.7,84.5,225.5,84.9,225.2,85L225.2,85z M219,86.1l5.1-2.2L221,69.5
			l-4.9,3.1L219,86.1L219,86.1z M222.2,68.2L222.2,68.2L222.2,68.2z"/>
	</g>
	<polygon class="st0" points="215.1,71.7 209.2,75.5 205.8,59.4 211.7,55.6 	"/>
	<g>
		<path class="st1" d="M215.5,72.4l-5.8,3.7c-0.3,0.2-0.8,0.1-1-0.2c0-0.1-0.1-0.2-0.1-0.2l0,0l-3.5-16.1c-0.1-0.3,0.1-0.6,0.3-0.7
			l5.9-3.8c0.3-0.2,0.8-0.1,1,0.2c0,0.1,0.1,0.2,0.1,0.2l3.5,16.1C215.9,71.9,215.7,72.2,215.5,72.4L215.5,72.4z M209.7,74.3
			l4.6-2.9l-3.1-14.7l-4.6,3L209.7,74.3L209.7,74.3z M212.4,55.4L212.4,55.4L212.4,55.4z"/>
	</g>
	<polygon class="st0" points="209.2,75.5 203.4,79.2 199.9,63.2 205.8,59.4 	"/>
	<g>
		<path class="st1" d="M209.6,76.1l-5.8,3.7c-0.3,0.2-0.8,0.1-1-0.2c0-0.1-0.1-0.2-0.1-0.2h0l-3.4-16.1c-0.1-0.3,0.1-0.6,0.3-0.7
			l5.9-3.8c0.3-0.2,0.8-0.1,1,0.2c0,0.1,0.1,0.2,0.1,0.2l3.4,16.1C210,75.7,209.8,76,209.6,76.1L209.6,76.1z M203.8,78.1l4.6-2.9
			l-3.1-14.7l-4.6,3L203.8,78.1L203.8,78.1z M206.5,59.2L206.5,59.2L206.5,59.2z"/>
	</g>
	<polygon class="st0" points="218,86.9 212.4,89.1 209.6,75.6 214.9,72.2 	"/>
	<g>
		<path class="st1" d="M218.3,87.5l-5.6,2.2c-0.4,0.1-0.8,0-0.9-0.4c0,0,0-0.1,0-0.1l-2.9-13.4c-0.1-0.3,0.1-0.6,0.3-0.7l5.3-3.4
			c0.3-0.2,0.8-0.1,1,0.2c0,0.1,0.1,0.2,0.1,0.2l3.1,14.7C218.8,87.1,218.6,87.4,218.3,87.5L218.3,87.5z M213,88.1l4.3-1.7
			l-2.8-13.1l-4.1,2.6L213,88.1L213,88.1z M215.6,72.1L215.6,72.1L215.6,72.1z"/>
	</g>
	<polygon class="st0" points="212.5,90.2 206.8,92.7 204,79.4 209.5,75.9 	"/>
	<g>
		<path class="st1" d="M212.7,90.8l-5.6,2.5c-0.4,0.2-0.8,0-0.9-0.4c0,0,0-0.1,0-0.1h0l-2.8-13.2c-0.1-0.3,0.1-0.6,0.3-0.7l5.5-3.5
			c0.3-0.2,0.8-0.1,1,0.2c0,0.1,0.1,0.2,0.1,0.2l3,14.2C213.3,90.4,213.1,90.7,212.7,90.8L212.7,90.8z M207.3,91.7l4.4-1.9L209,77.1
			l-4.2,2.7L207.3,91.7L207.3,91.7z M210.1,75.8L210.1,75.8L210.1,75.8z"/>
	</g>
	<polygon class="st0" points="203.1,79.3 198,82.7 194.8,67.5 199.8,64 	"/>
	<path class="st1" d="M203.4,79.8l-5,3.4c-0.3,0.2-0.8,0.1-1-0.2c-0.1-0.1-0.1-0.2-0.1-0.3l-3.3-15.2c-0.1-0.3,0.1-0.6,0.3-0.7
		l5-3.4c0.3-0.2,0.8-0.1,1,0.2c0.1,0.1,0.1,0.2,0.1,0.3h0l3.3,15.2C203.8,79.4,203.7,79.7,203.4,79.8L203.4,79.8z M198.5,81.5
		l3.8-2.6l-2.9-13.7l-3.8,2.6L198.5,81.5z"/>
	<polygon class="st0" points="197.9,82.8 192.3,86.4 189,71 194.6,67.4 	"/>
	<g>
		<path class="st1" d="M198.2,83.4l-5.6,3.5c-0.3,0.2-0.8,0.1-1-0.2c0-0.1-0.1-0.2-0.1-0.2h0l-3.3-15.4c-0.1-0.3,0.1-0.6,0.3-0.7
			l5.6-3.6c0.3-0.2,0.8-0.1,1,0.2c0,0.1,0.1,0.2,0.1,0.2l3.3,15.4C198.6,83,198.5,83.3,198.2,83.4L198.2,83.4z M192.7,85.2l4.3-2.8
			l-3-13.9l-4.3,2.8L192.7,85.2L192.7,85.2z M195.3,67.2L195.3,67.2L195.3,67.2z"/>
	</g>
	<polygon class="st0" points="206.5,93.2 200.7,95.3 198.1,82.7 203.5,79.4 	"/>
	<path class="st1" d="M206.7,93.8L201,96c-0.4,0.1-0.8,0-0.9-0.4c0,0,0-0.1,0-0.1l0,0l-2.7-12.6c-0.1-0.3,0.1-0.6,0.3-0.8l5.4-3.3
		c0.3-0.2,0.8-0.1,1,0.2c0,0.1,0.1,0.1,0.1,0.2l0,0l2.9,13.8C207.2,93.4,207,93.7,206.7,93.8L206.7,93.8z M201.3,94.4l4.4-1.6
		L203,80.5l-4.2,2.5L201.3,94.4z"/>
	<polygon class="st0" points="200.5,95.1 194.9,97.4 192.5,86.2 197.9,83.1 	"/>
	<path class="st1" d="M200.8,95.8l-5.6,2.2c-0.4,0.1-0.8,0-0.9-0.4c0,0,0-0.1,0-0.1h0l-2.4-11.2c-0.1-0.3,0.1-0.6,0.4-0.8l5.4-3.1
		c0.3-0.2,0.8-0.1,1,0.3c0,0.1,0.1,0.1,0.1,0.2l0,0l2.6,12.1C201.3,95.3,201.1,95.7,200.8,95.8L200.8,95.8z M195.4,96.4l4.3-1.7
		l-2.3-10.5l-4.1,2.4L195.4,96.4z"/>
	<polygon class="st0" points="191.9,86.4 187.3,89.6 184.2,74.7 188.7,71.4 	"/>
	<g>
		<path class="st1" d="M192.3,86.9l-4.6,3.3c-0.3,0.2-0.8,0.2-1-0.2c-0.1-0.1-0.1-0.2-0.1-0.3h0l-3.2-14.9c-0.1-0.3,0.1-0.6,0.3-0.7
			l4.6-3.3c0.3-0.2,0.8-0.2,1,0.2c0.1,0.1,0.1,0.2,0.1,0.3h0l3.2,14.9C192.7,86.5,192.6,86.8,192.3,86.9L192.3,86.9z M187.8,88.4
			l3.3-2.4l-2.9-13.4l-3.3,2.4L187.8,88.4L187.8,88.4z M183.8,74.1L184,74C183.9,74.1,183.8,74.1,183.8,74.1z"/>
	</g>
	<polygon class="st0" points="187,89.3 181.6,92.7 178.5,78.1 183.8,74.7 	"/>
	<g>
		<path class="st1" d="M187.3,90l-5.3,3.4c-0.3,0.2-0.8,0.1-1-0.2c0-0.1-0.1-0.2-0.1-0.2h0l-3.1-14.6c-0.1-0.3,0.1-0.6,0.3-0.7
			l5.3-3.4c0.3-0.2,0.8-0.1,1,0.2c0,0.1,0.1,0.2,0.1,0.2l3.1,14.7C187.7,89.5,187.6,89.8,187.3,90L187.3,90z M182.1,91.6l4.1-2.6
			l-2.8-13.2l-4.1,2.6L182.1,91.6L182.1,91.6z M184.5,74.5L184.5,74.5L184.5,74.5z"/>
	</g>
	<polygon class="st0" points="194.6,97.7 189.5,99.5 187.3,89.3 192.2,86.5 	"/>
	<path class="st1" d="M194.8,98.4l-5.1,1.8c-0.4,0.1-0.8-0.1-0.9-0.4c0,0,0-0.1,0-0.1h0l-2.2-10.2c-0.1-0.3,0.1-0.6,0.4-0.8l4.9-2.8
		c0.3-0.2,0.8-0.1,1,0.3c0,0.1,0.1,0.1,0.1,0.2h0l2.4,11.2C195.4,97.9,195.1,98.3,194.8,98.4L194.8,98.4z M190,98.6l3.8-1.4
		l-2.1-9.6l-3.6,2.1L190,98.6z"/>
	<polygon class="st0" points="189.1,98.7 183.3,100.8 181.5,92.1 187.1,89.4 	"/>
	<path class="st4" d="M189.3,99.4l-5.7,2.1c-0.4,0.1-0.8-0.1-0.9-0.4c0,0,0-0.1,0-0.1l-1.8-8.6c-0.1-0.3,0.1-0.7,0.4-0.8l5.5-2.7
		c0.3-0.2,0.8,0,0.9,0.3c0,0.1,0,0.1,0.1,0.2l0,0l2,9.4C189.8,98.9,189.6,99.3,189.3,99.4L189.3,99.4L189.3,99.4z M183.9,99.8
		l4.4-1.6l-1.7-7.9l-4.3,2.1L183.9,99.8z"/>
	<polygon class="st0" points="181.3,91.9 176,95.3 172.9,80.7 178.2,77.3 	"/>
	<g>
		<path class="st1" d="M181.7,92.5l-5.3,3.4c-0.3,0.2-0.8,0.1-1-0.2c0-0.1-0.1-0.2-0.1-0.2h0l-3.1-14.6c-0.1-0.3,0.1-0.6,0.3-0.7
			l5.3-3.4c0.3-0.2,0.8-0.1,1,0.2c0,0.1,0.1,0.2,0.1,0.2l3.1,14.7C182.1,92.1,181.9,92.4,181.7,92.5L181.7,92.5z M176.5,94.2
			l4.1-2.6l-2.8-13.2l-4.1,2.6L176.5,94.2L176.5,94.2z M178.9,77.1L178.9,77.1L178.9,77.1z"/>
	</g>
	<polygon class="st0" points="183.5,101.3 177.7,103.3 175.9,94.7 181.4,91.9 	"/>
	<path class="st1" d="M183.7,102L178,104c-0.4,0.1-0.8-0.1-0.9-0.4c0,0,0-0.1,0-0.1l-1.8-8.6c-0.1-0.3,0.1-0.7,0.4-0.8l5.5-2.7
		c0.3-0.2,0.8,0,0.9,0.3c0,0.1,0,0.1,0.1,0.2h0l2,9.4C184.2,101.5,184,101.8,183.7,102L183.7,102L183.7,102z M178.2,102.4l4.4-1.6
		l-1.7-7.9l-4.3,2.1L178.2,102.4z"/>
	<polygon class="st0" points="175.8,94.5 172.9,97.3 169.8,82.7 172.6,79.8 	"/>
	<path class="st2" d="M176.2,95l-2.8,2.8c-0.3,0.3-0.7,0.3-1,0c-0.1-0.1-0.2-0.2-0.2-0.4h0l-3.1-14.6c-0.1-0.2,0-0.5,0.2-0.7
		l2.8-2.9c0.3-0.3,0.7-0.3,1,0c0.1,0.1,0.2,0.2,0.2,0.4h0l3.1,14.7C176.5,94.6,176.4,94.8,176.2,95L176.2,95z M173.3,95.9l1.7-1.7
		l-2.8-13l-1.7,1.7L173.3,95.9z"/>
	<polygon class="st0" points="177.8,103.9 174.6,105.4 172.8,96.7 175.8,94.5 	"/>
	<path class="st2" d="M178.1,104.5l-3.2,1.5c-0.4,0.2-0.8,0-0.9-0.3c0-0.1,0-0.1-0.1-0.2l0,0l-1.9-8.7c-0.1-0.3,0.1-0.6,0.3-0.7
		l3-2.2c0.3-0.2,0.8-0.2,1,0.2c0.1,0.1,0.1,0.2,0.1,0.3h0l2,9.4C178.6,104,178.4,104.4,178.1,104.5L178.1,104.5z M175.1,104.3
		l1.9-0.9l-1.7-7.8l-1.8,1.3L175.1,104.3z"/>
	<polygon class="st1" points="250.7,17.9 169.2,80.1 170.1,84.3 252.6,26.7 	"/>
	<path class="st1" d="M250.2,19.1L170,80.4l0.6,2.7l81.2-56.7L250.2,19.1L250.2,19.1z M168.8,79.5l81.4-62.2
		c0.1-0.1,0.2-0.1,0.3-0.1c0.4-0.1,0.8,0.2,0.8,0.5l1.9,8.8h0c0.1,0.3,0,0.6-0.3,0.7l-82.4,57.5c-0.1,0.1-0.2,0.1-0.3,0.1
		c-0.4,0.1-0.8-0.2-0.8-0.5l-0.9-4.2l0,0C168.5,80,168.6,79.7,168.8,79.5z"/>
	<polygon class="st0" points="261.3,70.1 173.9,104.6 174.2,105.9 261.8,72.7 	"/>
	<path class="st1" d="M260.8,71.1l-78.9,31.2l79.2-30L260.8,71.1L260.8,71.1z M173.6,103.9L261,69.4c0,0,0.1,0,0.1,0
		c0.4-0.1,0.7,0.2,0.8,0.6l0.5,2.6h0c0.1,0.3-0.1,0.7-0.4,0.8l-87.6,33.2c0,0-0.1,0-0.1,0c-0.4,0.1-0.8-0.2-0.8-0.5l-0.3-1.3
		C173.1,104.4,173.3,104.1,173.6,103.9z"/>
	<polygon class="st1" points="268.9,30.6 252.8,26.4 250.9,17.6 266.9,21.3 	"/>
	<path class="st1" d="M268.7,31.3l-16-4.3c-0.3-0.1-0.5-0.3-0.5-0.5h0l-1.9-8.8c-0.1-0.4,0.2-0.8,0.5-0.8c0.1,0,0.2,0,0.3,0l0,0
		l15.9,3.7c0.3,0.1,0.5,0.3,0.5,0.6l2,9.3c0.1,0.4-0.2,0.8-0.5,0.8C268.9,31.4,268.8,31.3,268.7,31.3L268.7,31.3z M253.4,25.8
		l14.5,3.9l-1.7-7.8l-14.4-3.4L253.4,25.8z"/>
	<polygon class="st1" points="303.7,37.2 287.1,33.5 285.9,27.3 302.1,30.3 	"/>
	<path class="st1" d="M303.5,37.9l-16.6-3.7c-0.3-0.1-0.5-0.3-0.5-0.6h0l-1.2-6.2c-0.1-0.4,0.2-0.8,0.6-0.8c0.1,0,0.2,0,0.3,0
		l16.2,3.1c0.3,0.1,0.5,0.3,0.6,0.5h0l1.6,6.8c0.1,0.4-0.1,0.8-0.5,0.8C303.7,37.9,303.6,37.9,303.5,37.9L303.5,37.9z M287.7,32.9
		l15.1,3.4l-1.2-5.3l-14.8-2.8L287.7,32.9z"/>
	<polygon class="st0" points="309.3,67.4 293.6,68.2 293.2,65.7 308.6,64.8 	"/>
	<path class="st1" d="M309.3,68.1l-15.7,0.8c-0.4,0-0.7-0.3-0.7-0.6l-0.4-2.5c-0.1-0.4,0.2-0.7,0.6-0.8c0,0,0,0,0.1,0v0l15.4-0.9
		c0.3,0,0.7,0.2,0.7,0.6l0.7,2.5c0.1,0.4-0.1,0.8-0.5,0.9C309.4,68.1,309.3,68.1,309.3,68.1L309.3,68.1L309.3,68.1z M294.2,67.5
		l14.2-0.8l-0.3-1.2L294,66.4L294.2,67.5z"/>
	<polygon class="st0" points="276.5,69.8 261.8,72.4 261.3,69.9 276.1,67.8 	"/>
	<path class="st1" d="M276.6,70.5l-14.7,2.6c-0.4,0.1-0.7-0.2-0.8-0.6l0,0l-0.5-2.5c-0.1-0.4,0.2-0.7,0.6-0.8c0,0,0,0,0.1,0
		l14.8-2.1c0.4-0.1,0.7,0.2,0.8,0.6l0.4,2C277.3,70,277,70.4,276.6,70.5L276.6,70.5L276.6,70.5L276.6,70.5z M262.3,71.6l13.3-2.3
		l-0.1-0.6l-13.4,1.9L262.3,71.6z"/>
	<polygon class="st5" points="293.9,97.1 282.6,99.6 265.1,8.7 273.4,1.2 	"/>
	<path class="st1" d="M294.1,97.8l-11.3,2.5c-0.4,0.1-0.8-0.2-0.8-0.5l0,0L264.4,8.8c0-0.3,0-0.5,0.2-0.7l0,0l8.3-7.5
		c0.3-0.3,0.7-0.2,1,0.1c0.1,0.1,0.1,0.2,0.2,0.3L294.6,97C294.7,97.4,294.5,97.7,294.1,97.8L294.1,97.8L294.1,97.8z M283.2,98.7
		l10-2.2L273,2.5L265.8,9L283.2,98.7z"/>
	<polygon class="st1" points="299.8,96 294,96.7 273.9,0.7 281.2,5.3 	"/>
	<path class="st1" d="M299.8,96.7l-5.8,0.7c-0.4,0-0.7-0.2-0.8-0.6l-20.1-96c-0.1-0.4,0.2-0.8,0.5-0.8c0.2,0,0.4,0,0.5,0.1h0
		l7.4,4.6c0.2,0.1,0.3,0.3,0.3,0.5l18.5,90.7C300.5,96.3,300.3,96.6,299.8,96.7C299.9,96.7,299.9,96.7,299.8,96.7L299.8,96.7
		L299.8,96.7z M294.5,95.9l4.4-0.5L280.6,5.7l-5.7-3.6L294.5,95.9z"/>
	<polygon class="st1" points="329.8,88.2 324.4,89.4 308.7,14.1 315.8,18.8 	"/>
	<path class="st1" d="M329.9,88.9l-5.4,1.2c-0.4,0.1-0.8-0.2-0.8-0.5l0,0L308,14.3c-0.1-0.4,0.2-0.8,0.5-0.8c0.2,0,0.4,0,0.6,0.1
		l7.1,4.6c0.2,0.1,0.3,0.3,0.3,0.4h0l14,69.4C330.5,88.4,330.3,88.8,329.9,88.9L329.9,88.9L329.9,88.9z M324.9,88.5l4-0.9
		l-13.8-68.4l-5.4-3.6L324.9,88.5z"/>
	<polygon class="st5" points="324.2,89.7 314.8,91.7 299.5,20.9 308.7,14.7 	"/>
	<path class="st1" d="M324.3,90.4l-9.4,2c-0.4,0.1-0.8-0.2-0.8-0.5L298.8,21c-0.1-0.3,0.1-0.6,0.3-0.8l9.2-6.2
		c0.3-0.2,0.8-0.1,1,0.2c0.1,0.1,0.1,0.2,0.1,0.3l15.5,75C324.9,89.9,324.7,90.3,324.3,90.4L324.3,90.4L324.3,90.4z M315.4,90.9
		l8-1.7l-15.1-73.3l-8,5.3L315.4,90.9z"/>
	<polygon class="st6" points="251.5,17.4 273.4,1.2 277.2,18.3 294,96.7 282.6,99.6 266.9,21.3 	"/>
	<polygon class="st6" points="286.5,26.8 308.7,14.3 311.9,30.3 323.7,89.3 314.8,91.4 302,29.7 	"/>
	<path class="st1" d="M286.1,26.1l22.2-12.4c0.3-0.2,0.8-0.1,1,0.3c0,0.1,0.1,0.2,0.1,0.2l3.2,15.9l0,0h0l11.7,59
		c0.1,0.4-0.2,0.7-0.5,0.8l-8.9,2.1c-0.4,0.1-0.8-0.1-0.8-0.5c0,0,0,0,0-0.1l-12.7-61.2l-15-2.8c-0.4-0.1-0.6-0.4-0.6-0.8
		C285.8,26.4,286,26.2,286.1,26.1L286.1,26.1L286.1,26.1z M308.2,15.4l-19.6,11l13.6,2.6l0,0c0.3,0.1,0.5,0.3,0.6,0.5l12.6,61
		l7.5-1.8l-11.6-58.3l0,0L308.2,15.4z"/>
	<polygon class="st0" points="276.1,70.2 184.9,104 174.1,106.3 261.8,72.7 	"/>
	<path class="st1" d="M276.3,70.8l-91.2,33.8c0,0-0.1,0-0.1,0l-10.8,2.3c-0.4,0.1-0.8-0.2-0.8-0.5c-0.1-0.3,0.1-0.7,0.4-0.8l0,0
		L261.5,72c0.1,0,0.1,0,0.2,0l14.3-2.5c0.4-0.1,0.7,0.2,0.8,0.6C276.8,70.4,276.6,70.7,276.3,70.8L276.3,70.8z M184.7,103.3
		l83.9-31.1l-6.7,1.2l-79.1,30.3L184.7,103.3z"/>
	<polygon class="st0" points="278.3,80.4 192.1,103.8 189.1,102.2 276.1,70.2 	"/>
	<path class="st1" d="M278.5,81.1l-86.2,23.3c-0.2,0.1-0.4,0-0.5-0.1l-2.9-1.6c-0.3-0.2-0.5-0.6-0.3-1c0.1-0.2,0.2-0.3,0.4-0.3l0,0
		l86.9-32c0.4-0.1,0.8,0.1,0.9,0.4c0,0,0,0.1,0,0.1l0,0l2.2,10.3C279.1,80.7,278.8,81,278.5,81.1L278.5,81.1z M192.2,103l85.3-23.1
		l-1.9-8.8l-84.7,31.2L192.2,103z"/>
	<polygon class="st0" points="333.1,96.9 312.4,101.3 310.6,93 330.9,88.1 	"/>
	<path class="st2" d="M333.3,97.6l-20.7,4.4c-0.4,0.1-0.8-0.2-0.8-0.5l-1.8-8.3c-0.1-0.4,0.2-0.8,0.5-0.8l0,0l20.3-4.9
		c0.4-0.1,0.8,0.1,0.8,0.5h0l2.2,8.9C333.9,97.1,333.7,97.5,333.3,97.6L333.3,97.6L333.3,97.6L333.3,97.6z M312.9,100.5l19.3-4.1
		l-1.9-7.5l-19,4.6L312.9,100.5z"/>
	<polygon class="st0" points="303.5,104.1 279.9,109.2 278.2,101.1 301,95.6 	"/>
	<path class="st2" d="M303.6,104.8l-23.6,5c-0.4,0.1-0.8-0.2-0.8-0.5l-1.7-8.1c-0.1-0.4,0.2-0.8,0.5-0.8l0,0l22.8-5.5
		c0.4-0.1,0.7,0.1,0.8,0.5l0,0l2.4,8.5C304.2,104.3,304,104.7,303.6,104.8C303.6,104.8,303.6,104.8,303.6,104.8L303.6,104.8
		L303.6,104.8z M280.4,108.4l22.2-4.7l-2-7.1l-21.6,5.2L280.4,108.4z"/>
</g>
<g>
	<path class="st7" d="M44.9,100.8l-6.4,0.9l4.1,24.6l-8.2,1.1l-4.1-24.6l-2.4,0.3l-0.7-4.2l2.4-0.3c-0.4-2.7,0-4.8,1.3-6.3
		c1.3-1.5,4-2.5,8-3l4-0.5l0.7,4.2l-4,0.5c-1.6,0.2-2.2,1.5-1.8,4l6.4-0.9L44.9,100.8z"/>
	<path class="st7" d="M69,99.7l-8.2,1.1l-1.3-8c-0.2-1.3-1.1-1.9-2.7-1.7c-1.6,0.2-2.3,1-2,2.3l5.1,30.5l-8.2,1.1l-6.1-36.7l8.2-1.1
		l0.2,1.3c1.4-1.1,3.6-1.8,6.4-2.2c1.7-0.2,3.2,0.1,4.7,1.1c1.5,1,2.4,2.4,2.7,4.2L69,99.7z"/>
	<path class="st7" d="M73.4,115.8l-4-24.3c-0.7-4.1,2.5-6.7,9.6-7.6c7.1-1,10.9,0.6,11.6,4.8l4,24.3c0.7,4.3-2.5,6.9-9.5,7.9
		C78,121.8,74.1,120.1,73.4,115.8L73.4,115.8z M86.4,114.1l-4-24.3c-0.2-1.3-1.1-1.9-2.7-1.7c-1.6,0.2-2.3,1-2,2.3l4,24.3
		c0.2,1.3,1.1,1.9,2.7,1.7C85.9,116.2,86.6,115.4,86.4,114.1z"/>
	<path class="st7" d="M119.1,116l-8.2,1.1l-5.1-30.5c-0.2-1.3-1.1-1.9-2.7-1.7c-1.6,0.2-2.3,1-2,2.3l5.1,30.5l-8.2,1.1l-6.1-36.7
		L100,81l0.2,1.3c1.4-1.1,3.6-1.8,6.4-2.2c1.7-0.2,3.2,0.1,4.7,1.1c1.5,1,2.4,2.4,2.7,4.2L119.1,116z"/>
	<path class="st7" d="M132.9,84.6l-6.4,0.9l-1.3-7.9l-8.2,1.1l1.3,7.9l-2.4,0.3l0.7,4.2l2.4-0.3l2.8,16.8c0.4,2.7,1.5,4.6,3.3,5.7
		c1.8,1.1,4.6,1.3,8.6,0.8l4-0.5l-0.7-4.2l-4,0.5c-1.6,0.2-2.6-0.9-3-3.3l-2.8-16.8l6.4-0.9L132.9,84.6z"/>
	<path class="st7" d="M156.8,111.4l-8.1,1.1l-6.1-36.7l8.1-1.1L156.8,111.4L156.8,111.4z M141.8,71.9c0.1,0.9,0.7,1.6,1.6,2.2
		c0.9,0.6,1.9,0.8,3.1,0.6c1.1-0.2,2-0.6,2.7-1.4c0.7-0.8,1-1.6,0.8-2.6c-0.2-0.9-0.7-1.7-1.6-2.2c-0.9-0.5-1.9-0.7-3-0.6
		c-1.1,0.2-2.1,0.6-2.8,1.4C142,70.1,141.7,71,141.8,71.9z"/>
	<path class="st7" d="M180.5,108.2l-8.2,1.1l-5.1-30.5c-0.2-1.3-1.1-1.9-2.7-1.7c-1.6,0.2-2.3,1-2,2.3l5.1,30.5l-8.2,1.1l-6.1-36.7
		l8.2-1.1l0.2,1.3c1.4-1.1,3.6-1.8,6.4-2.2c1.7-0.2,3.2,0.1,4.7,1.1c1.5,1,2.4,2.4,2.7,4.2L180.5,108.2z"/>
</g>
<path class="st7" d="M23.9,143.3C16.7,169.1,9.4,195,2.4,220.5c-5.4,19.6-2.3,21,16.4,21l59-0.1c3.3,0.3,5.8,1.4,7.1,3.5
	c2.3,3.8,0,10-1.1,14.1c-0.9,3.5-1.8,7-2.8,10.6c-3.3,12.7,1.5,9.5,9.8,3.1c7.6-5.9,15.1-11.8,22.7-17.7c4.8-3.7,11-9.4,16.3-11.9
	c1.4-0.7,2.9-1.2,4.3-1.6l212.2-0.2c14.1,0,27.6,1.4,23.9-16.7c-8.2-39.8-16.4-84.1-24.5-123.5c-5.5-26.6-9.5-23.6-34.6-19.6
	c-87.2,14-174.4,28.1-261.6,42.1C34.3,125.8,28.3,127.7,23.9,143.3z"/>
<g>
	<polygon class="st8" points="67.9,209 23.7,192.6 22.8,183.7 62.6,158.2 63.7,168.3 35,187 66.8,198.8 	"/>
	<path class="st8" d="M69.9,193.4l15-1.5l1.3,12.9c0.3,2.8,1.9,4.1,4.8,3.8c2.9-0.3,4.2-1.8,3.9-4.7c-0.7-7-4.4-13.6-11-20.1
		c-6.6-6.4-11-10.6-13.2-12.4c-2.2-1.8-3.5-4.4-3.8-7.9l-1-9.3c-0.9-8.8,5.1-13.8,17.9-15.1c12.9-1.3,19.7,2.5,20.6,11.3l1.3,12.8
		l-15,1.5l-1.3-12.8c-0.3-2.8-1.9-4.1-4.7-3.8c-2.9,0.3-4.2,1.8-3.9,4.7c0.4,5.2,1.4,8.5,3.1,10c1.7,1.5,6.2,5.8,13.4,13
		c7.2,7.2,11.1,12.9,11.5,17.3l1,9.4c0.9,9.2-5,14.4-17.9,15.6c-12.9,1.3-19.8-2.7-20.7-11.9L69.9,193.4z"/>
	<path class="st8" d="M153.7,211.6l-15,1.5l-0.3-2.5c-0.9,2.4-4.3,3.9-10.2,4.5c-8.7,0.8-13.4-2-14.1-8.6l-2.6-25.1
		c-0.3-2.9,0.5-5.5,2.2-7.9c1.8-2.4,5.8-5.5,12.2-9.4c4.5-2.3,6.8-4.1,7.1-5.2l-1.1-10.8c-0.3-2.8-1.9-4.1-4.8-3.8
		c-2.9,0.3-4.2,1.8-3.9,4.7l1.2,12l-15,1.5l-1.2-12c-0.9-8.8,5.1-13.8,17.9-15.1c12.9-1.3,19.8,2.5,20.7,11.3L153.7,211.6
		L153.7,211.6z M137.4,199.8l-2.9-28.6c-5.7,1.5-8.4,3.4-8.2,5.8l2.4,23.6c0.3,2.8,1.9,4.1,4.8,3.8
		C136.4,204.2,137.7,202.7,137.4,199.8z"/>
	<path class="st8" d="M219.8,204.6l-15,1.5l-6.7-65.1c-0.3-2.8-1.9-4.1-4.8-3.8c-2.9,0.3-4.2,1.8-3.9,4.7l6.7,65.1l-15,1.5
		l-6.7-65.1c-0.3-2.8-1.9-4.1-4.8-3.8c-2.9,0.3-4.2,1.8-3.9,4.7l6.7,65.1l-15,1.5l-8-78.3l15-1.5l0.3,2.8c2.7-2.2,6.6-3.5,11.7-4
		c3.9-0.4,7.9,0.8,12.1,3.4c2.6-3.3,6-5.1,10.4-5.6c2.9-0.3,5.8,0.3,8.8,1.7c3,1.4,4.8,4.8,5.3,10.3L219.8,204.6z"/>
	<path class="st8" d="M231.7,126.5l-0.2-2.2l-15,1.5l8,78.3l15-1.5l-1.1-10.8c3.2,1.3,7.3,1.8,12.2,1.3c3-0.3,5.6-1.3,7.8-3.2
		c2.2-1.8,3-5.5,2.4-11.2l-4.5-43.5c-0.6-5.6-2.4-9.1-5.4-10.7c-3-1.5-6.7-2.1-10.9-1.7C236.8,123.2,234,124.4,231.7,126.5
		L231.7,126.5z M241.4,136.6l4.5,43.5c0.3,2.8-1,4.4-3.9,4.7c-2.9,0.3-4.5-1-4.8-3.8l-4.5-43.5c-0.3-2.8,1-4.4,3.9-4.7
		C239.6,132.5,241.1,133.8,241.4,136.6z"/>
	<path class="st8" d="M305.6,196.7l-15,1.5l-0.3-2.5c-0.9,2.4-4.3,3.9-10.2,4.5c-8.7,0.9-13.4-2-14.1-8.6l-2.6-25.1
		c-0.3-2.9,0.5-5.5,2.2-7.9c1.8-2.4,5.8-5.5,12.2-9.4c4.5-2.3,6.8-4.1,7.1-5.2l-1.1-10.8c-0.3-2.8-1.9-4.1-4.8-3.8
		c-2.9,0.3-4.2,1.8-3.9,4.7l1.2,12l-15,1.5l-1.2-12c-0.9-8.8,5.1-13.8,17.9-15.1c12.9-1.3,19.8,2.5,20.7,11.3L305.6,196.7
		L305.6,196.7z M289.3,185l-2.9-28.6c-5.7,1.5-8.4,3.4-8.2,5.8l2.4,23.6c0.3,2.8,1.9,4.1,4.8,3.8C288.3,189.4,289.6,187.8,289.3,185
		z"/>
	<polygon class="st8" points="308.9,185.5 348.8,160.9 347.9,151.9 303.7,134.6 304.7,144.8 336.6,157.5 307.8,175.3 	"/>
</g>
</svg>
