<svg id="Layer_1" xmlns="http://www.w3.org/2000/svg" viewBox="0 0 370.8 278.3"><style>.st0{fill:#d6cfd5}.st1{fill:#12100d}.st2{fill:#17120e}.st3{fill:none}.st3,.st4{stroke:#12100d;stroke-width:.216;stroke-miterlimit:22.9256}.st4{fill:#12100d}.st5{fill:#c9b79a}.st6{fill:#ebe7eb}.st7{fill:#df0a15}.st8{fill:#FFF}</style><path class="st0" d="M256.2 46.2l-6.8 4.4-4-18.7 6.8-4.3z"/><path class="st1" d="M256.5 46.8l-6.8 4.3c-.3.2-.8.1-1-.2 0-.1-.1-.2-.1-.2l-4-18.6c-.1-.3.1-.6.3-.7l6.8-4.4c.3-.2.8-.1 1 .2 0 .1.1.2.1.2l4 18.6c.2.4 0 .7-.3.8zm-6.6 2.6l5.5-3.5-3.7-17.2-5.5 3.6 3.7 17.1zm3-22z"/><path class="st0" d="M272.3 48l-16.1-1.8-3.6-19.5 16.3 3.9z"/><path class="st1" d="M272.2 48.7l-16-1.8c-.3 0-.6-.3-.6-.6L252 26.8c-.1-.4.2-.7.6-.8h.3l16.1 4c.3.1.5.3.5.5l3.4 17.4c.1.4-.2.8-.6.8h-.1zm-15.4-3.1l14.6 1.6-3.2-16-14.8-3.6 3.4 18z"/><path class="st0" d="M306.1 52.3l-16-1.3-3.3-17.9 16.2 3.4z"/><path class="st2" d="M306 53l-16-1.4c-.3 0-.6-.3-.6-.6l-3.3-17.8c-.1-.4.2-.7.6-.8h.3l16.1 3.3c.3.1.5.3.5.6l3.1 15.9c.1.4-.2.8-.6.8h-.1zm-15.3-2.7l14.5 1.2-2.8-14.5-14.7-3 3 16.3z"/><path class="st0" d="M308.5 65.1l-15.5.5-2.9-15.9 15.7 1.2z"/><path class="st1" d="M308.5 65.8l-15.5.5c-.4 0-.7-.3-.7-.6l-2.9-15.9c-.1-.4.2-.7.6-.8h.2l15.7 1.2c.3 0 .6.3.6.6l2.7 14.2c.1.4-.2.7-.6.8h-.1zm-15-.9l14.2-.5-2.5-12.8-14.3-1.1 2.6 14.4z"/><path class="st0" d="M276.1 67.8l-14.8 2.1-5.2-23.4 16.2 1.5z"/><path class="st1" d="M276.2 68.5l-14.8 2.1c-.4.1-.7-.2-.8-.6l-5.2-23.4c-.1-.4.2-.8.5-.8h.2l16.2 1.5c.3 0 .6.3.6.6l3.8 19.8c.1.4-.1.7-.5.8zm-14.4.6l13.4-1.9-3.6-18.5-14.6-1.4 4.8 21.8z"/><path class="st0" d="M248.9 50.7l-6.7 4.4-3.9-18.1 6.8-4.3z"/><path class="st1" d="M249.3 51.3l-6.7 4.4c-.3.2-.8.1-1-.2 0-.1-.1-.2-.1-.2l-3.9-18c-.1-.3.1-.6.3-.7l6.8-4.4c.3-.2.8-.1 1 .2 0 .1.1.2.1.2l3.8 18c.1.2-.1.5-.3.7zm-6.7 2.6l5.5-3.6-3.5-16.5-5.5 3.6 3.5 16.5zm3.2-21.4z"/><path class="st0" d="M241.6 55.3l-6.6 4.3-3.8-17.8 6.6-4.2z"/><path class="st1" d="M242 56l-6.6 4.2c-.3.2-.8.1-1-.2 0-.1-.1-.2-.1-.2L230.5 42c-.1-.3.1-.6.3-.7l6.6-4.3c.3-.2.8-.1 1 .2 0 .1.1.2.1.2l3.8 17.8c.1.3-.1.6-.3.8zm-6.5 2.4l5.4-3.4-3.5-16.3-5.4 3.5 3.5 16.2zm3-21z"/><path class="st0" d="M234.8 60l-6.5 3.9-3.7-17.4 6.4-4.1z"/><path class="st1" d="M235.1 60.6l-6.5 3.9c-.3.2-.8.1-1-.2 0-.1-.1-.2-.1-.2l-3.7-17.3c-.1-.3.1-.6.3-.7l6.4-4.1c.3-.2.8-.1 1 .2 0 .1.1.2.1.2l3.8 17.6c.1.1 0 .4-.3.6zm-6.3 2.2l5.2-3.1-3.4-16.1-5.2 3.3 3.4 15.9zm2.9-20.5z"/><path class="st0" d="M228 64.1l-6.2 4-3.7-17.1 6.2-4z"/><path class="st1" d="M228.4 64.8l-6.2 4c-.3.2-.8.1-1-.2 0-.1-.1-.2-.1-.2l-3.7-17.1c-.1-.3.1-.6.3-.7l6.2-4c.3-.2.8-.1 1 .2 0 .1.1.2.1.2l3.7 17.2c.1.1-.1.4-.3.6zm-6.2 2.2l5-3.2-3.4-15.7-5 3.2 3.4 15.7zm2.8-20.2z"/><path class="st0" d="M221.4 68l-6.1 4-3.6-16.9 6.1-3.9z"/><path class="st1" d="M221.8 68.7l-6.1 3.9c-.3.2-.8.1-1-.2 0-.1-.1-.2-.1-.2L211 55.3c-.1-.3.1-.6.3-.7l6.1-3.9c.3-.2.8-.1 1 .2 0 .1.1.2.1.2l3.6 16.8c.1.3-.1.6-.3.8zm-6 2.1l4.9-3.1-3.3-15.4-4.9 3.1 3.3 15.4zm2.7-19.8z"/><path class="st3" d="M221.8 68.7l-6.1 3.9c-.3.2-.8.1-1-.2 0-.1-.1-.2-.1-.2L211 55.3c-.1-.3.1-.6.3-.7l6.1-3.9c.3-.2.8-.1 1 .2 0 .1.1.2.1.2l3.6 16.8c.1.3-.1.6-.3.8zm-6 2.1l4.9-3.1-3.3-15.4-4.9 3.1 3.3 15.4zm2.7-19.8"/><path class="st0" d="M261.3 69.9l-7.2 2.6-4.6-21.4 6.7-4.7z"/><path class="st1" d="M261.5 70.6l-7.2 2.6c-.4.1-.8-.1-.9-.4v-.1l-4.6-21.4c-.1-.3.1-.6.3-.7l6.7-4.7c.3-.2.8-.1 1 .2.1.1.1.2.1.3l5 23.5c.1.2-.1.5-.4.7zm-6.9 1l5.8-2.1-4.7-21.9-5.5 3.8 4.4 20.2z"/><path class="st0" d="M253.8 72.6l-7.2 3-4.3-20 6.8-4.4z"/><path class="st1" d="M254.1 73.2l-7.3 3c-.4.1-.8 0-.9-.4v-.1l-4.3-20c-.1-.3.1-.6.3-.7l6.8-4.4c.3-.2.8-.1 1 .2.1.1.1.2.1.3l4.8 21.3c0 .4-.2.7-.5.8zm-7 1.4l5.9-2.5-4.4-19.8-5.5 3.6 4 18.7zm-1.2 1.2z"/><path class="st0" d="M246 75.6l-7 2.8-3.9-18.6 6.6-4.2z"/><path class="st1" d="M246.2 76.3l-6.9 2.8c-.4.1-.8 0-.9-.4v-.1l-4-18.6c-.1-.3.1-.6.3-.7l6.6-4.3c.3-.2.8-.1 1 .2 0 .1.1.2.1.2l4.3 20c0 .4-.2.8-.5.9zm-6.7 1.2l5.6-2.3-4-18.5-5.4 3.5 3.8 17.3zm2.9-22.1z"/><path class="st0" d="M238.7 78.5l-6.7 2.8-3.6-17.1 6.4-4.1z"/><path class="st1" d="M239 79.2l-6.7 2.8c-.4.1-.8 0-.9-.4v-.1l-3.7-17.1c-.1-.3.1-.6.3-.7l6.4-4.1c.3-.2.8-.1 1 .2 0 .1.1.2.1.2l3.9 18.4c.1.3-.1.7-.4.8zm-6.5 1.1l5.4-2.2-3.6-16.8-5.2 3.3 3.4 15.7zm3-20.3z"/><path class="st0" d="M231.7 81.6l-6.5 2.5-3.4-15.7 6.3-4z"/><path class="st1" d="M232 82.2l-6.6 2.6c-.4.1-.8 0-.9-.4v-.1l-3.4-15.7c-.1-.3.1-.6.3-.7l6.2-4c.3-.2.8-.1 1 .2 0 .1.1.2.1.2l3.7 17.2c.1.3-.1.6-.4.7zm-6.3 1l5.2-2-3.3-15.6-5 3.2 3.1 14.4zm3.1-19z"/><path class="st0" d="M224.9 84.3l-6.4 2.8-3.1-14.8 6.1-4z"/><path class="st1" d="M225.2 85l-6.3 2.8c-.4.2-.8 0-.9-.4v-.1l-3.2-14.8c-.1-.3.1-.6.3-.7l6.1-3.9c.3-.2.8-.1 1 .2 0 .1.1.2.1.2l3.4 16c0 .2-.2.6-.5.7zm-6.2 1.1l5.1-2.2-3.1-14.4-4.9 3.1 2.9 13.5zm3.2-17.9z"/><path class="st0" d="M215.1 71.7l-5.9 3.8-3.4-16.1 5.9-3.8z"/><path class="st1" d="M215.5 72.4l-5.8 3.7c-.3.2-.8.1-1-.2 0-.1-.1-.2-.1-.2l-3.5-16.1c-.1-.3.1-.6.3-.7l5.9-3.8c.3-.2.8-.1 1 .2 0 .1.1.2.1.2l3.5 16.1c0 .3-.2.6-.4.8zm-5.8 1.9l4.6-2.9-3.1-14.7-4.6 3 3.1 14.6zm2.7-18.9z"/><path class="st0" d="M209.2 75.5l-5.8 3.7-3.5-16 5.9-3.8z"/><path class="st1" d="M209.6 76.1l-5.8 3.7c-.3.2-.8.1-1-.2 0-.1-.1-.2-.1-.2l-3.4-16.1c-.1-.3.1-.6.3-.7l5.9-3.8c.3-.2.8-.1 1 .2 0 .1.1.2.1.2l3.4 16.1c0 .4-.2.7-.4.8zm-5.8 2l4.6-2.9-3.1-14.7-4.6 3 3.1 14.6zm2.7-18.9z"/><path class="st0" d="M218 86.9l-5.6 2.2-2.8-13.5 5.3-3.4z"/><path class="st1" d="M218.3 87.5l-5.6 2.2c-.4.1-.8 0-.9-.4v-.1l-2.9-13.4c-.1-.3.1-.6.3-.7l5.3-3.4c.3-.2.8-.1 1 .2 0 .1.1.2.1.2l3.1 14.7c.1.3-.1.6-.4.7zm-5.3.6l4.3-1.7-2.8-13.1-4.1 2.6 2.6 12.2zm2.6-16z"/><path class="st0" d="M212.5 90.2l-5.7 2.5-2.8-13.3 5.5-3.5z"/><path class="st1" d="M212.7 90.8l-5.6 2.5c-.4.2-.8 0-.9-.4v-.1l-2.8-13.2c-.1-.3.1-.6.3-.7l5.5-3.5c.3-.2.8-.1 1 .2 0 .1.1.2.1.2l3 14.2c0 .4-.2.7-.6.8zm-5.4.9l4.4-1.9-2.7-12.7-4.2 2.7 2.5 11.9zm2.8-15.9z"/><path class="st0" d="M203.1 79.3l-5.1 3.4-3.2-15.2 5-3.5z"/><path class="st1" d="M203.4 79.8l-5 3.4c-.3.2-.8.1-1-.2-.1-.1-.1-.2-.1-.3L194 67.5c-.1-.3.1-.6.3-.7l5-3.4c.3-.2.8-.1 1 .2.1.1.1.2.1.3l3.3 15.2c.1.3 0 .6-.3.7zm-4.9 1.7l3.8-2.6-2.9-13.7-3.8 2.6 2.9 13.7z"/><path class="st0" d="M197.9 82.8l-5.6 3.6L189 71l5.6-3.6z"/><path class="st1" d="M198.2 83.4l-5.6 3.5c-.3.2-.8.1-1-.2 0-.1-.1-.2-.1-.2l-3.3-15.4c-.1-.3.1-.6.3-.7l5.6-3.6c.3-.2.8-.1 1 .2 0 .1.1.2.1.2l3.3 15.4c.1.4 0 .7-.3.8zm-5.5 1.8l4.3-2.8-3-13.9-4.3 2.8 3 13.9zm2.6-18z"/><path class="st0" d="M206.5 93.2l-5.8 2.1-2.6-12.6 5.4-3.3z"/><path class="st1" d="M206.7 93.8L201 96c-.4.1-.8 0-.9-.4v-.1l-2.7-12.6c-.1-.3.1-.6.3-.8l5.4-3.3c.3-.2.8-.1 1 .2 0 .1.1.1.1.2l2.9 13.8c.1.4-.1.7-.4.8zm-5.4.6l4.4-1.6-2.7-12.3-4.2 2.5 2.5 11.4z"/><path class="st0" d="M200.5 95.1l-5.6 2.3-2.4-11.2 5.4-3.1z"/><path class="st1" d="M200.8 95.8l-5.6 2.2c-.4.1-.8 0-.9-.4v-.1l-2.4-11.2c-.1-.3.1-.6.4-.8l5.4-3.1c.3-.2.8-.1 1 .3 0 .1.1.1.1.2l2.6 12.1c-.1.3-.3.7-.6.8zm-5.4.6l4.3-1.7-2.3-10.5-4.1 2.4 2.1 9.8z"/><path class="st0" d="M191.9 86.4l-4.6 3.2-3.1-14.9 4.5-3.3z"/><path class="st1" d="M192.3 86.9l-4.6 3.3c-.3.2-.8.2-1-.2-.1-.1-.1-.2-.1-.3l-3.2-14.9c-.1-.3.1-.6.3-.7l4.6-3.3c.3-.2.8-.2 1 .2.1.1.1.2.1.3l3.2 14.9c.1.3 0 .6-.3.7zm-4.5 1.5l3.3-2.4-2.9-13.4-3.3 2.4 2.9 13.4zm-4-14.3l.2-.1c-.1.1-.2.1-.2.1z"/><path class="st0" d="M187 89.3l-5.4 3.4-3.1-14.6 5.3-3.4z"/><path class="st1" d="M187.3 90l-5.3 3.4c-.3.2-.8.1-1-.2 0-.1-.1-.2-.1-.2l-3.1-14.6c-.1-.3.1-.6.3-.7l5.3-3.4c.3-.2.8-.1 1 .2 0 .1.1.2.1.2l3.1 14.7c.1.1 0 .4-.3.6zm-5.2 1.6l4.1-2.6-2.8-13.2-4.1 2.6 2.8 13.2zm2.4-17.1z"/><path class="st0" d="M194.6 97.7l-5.1 1.8-2.2-10.2 4.9-2.8z"/><path class="st1" d="M194.8 98.4l-5.1 1.8c-.4.1-.8-.1-.9-.4v-.1l-2.2-10.2c-.1-.3.1-.6.4-.8l4.9-2.8c.3-.2.8-.1 1 .3 0 .1.1.1.1.2l2.4 11.2c0 .3-.3.7-.6.8zm-4.8.2l3.8-1.4-2.1-9.6-3.6 2.1 1.9 8.9z"/><path class="st0" d="M189.1 98.7l-5.8 2.1-1.8-8.7 5.6-2.7z"/><path class="st4" d="M189.3 99.4l-5.7 2.1c-.4.1-.8-.1-.9-.4v-.1l-1.8-8.6c-.1-.3.1-.7.4-.8l5.5-2.7c.3-.2.8 0 .9.3 0 .1 0 .1.1.2l2 9.4c0 .1-.2.5-.5.6zm-5.4.4l4.4-1.6-1.7-7.9-4.3 2.1 1.6 7.4z"/><path class="st0" d="M181.3 91.9l-5.3 3.4-3.1-14.6 5.3-3.4z"/><path class="st1" d="M181.7 92.5l-5.3 3.4c-.3.2-.8.1-1-.2 0-.1-.1-.2-.1-.2l-3.1-14.6c-.1-.3.1-.6.3-.7l5.3-3.4c.3-.2.8-.1 1 .2 0 .1.1.2.1.2l3.1 14.7c.1.2-.1.5-.3.6zm-5.2 1.7l4.1-2.6-2.8-13.2-4.1 2.6 2.8 13.2zm2.4-17.1z"/><path class="st0" d="M183.5 101.3l-5.8 2-1.8-8.6 5.5-2.8z"/><path class="st1" d="M183.7 102l-5.7 2c-.4.1-.8-.1-.9-.4v-.1l-1.8-8.6c-.1-.3.1-.7.4-.8l5.5-2.7c.3-.2.8 0 .9.3 0 .1 0 .1.1.2l2 9.4c0 .2-.2.5-.5.7zm-5.5.4l4.4-1.6-1.7-7.9-4.3 2.1 1.6 7.4z"/><path class="st0" d="M175.8 94.5l-2.9 2.8-3.1-14.6 2.8-2.9z"/><path class="st2" d="M176.2 95l-2.8 2.8c-.3.3-.7.3-1 0-.1-.1-.2-.2-.2-.4l-3.1-14.6c-.1-.2 0-.5.2-.7l2.8-2.9c.3-.3.7-.3 1 0 .1.1.2.2.2.4l3.1 14.7c.1.3 0 .5-.2.7zm-2.9.9l1.7-1.7-2.8-13-1.7 1.7 2.8 13z"/><path class="st0" d="M177.8 103.9l-3.2 1.5-1.8-8.7 3-2.2z"/><path class="st2" d="M178.1 104.5l-3.2 1.5c-.4.2-.8 0-.9-.3 0-.1 0-.1-.1-.2l-1.9-8.7c-.1-.3.1-.6.3-.7l3-2.2c.3-.2.8-.2 1 .2.1.1.1.2.1.3l2 9.4c.2.2 0 .6-.3.7zm-3-.2l1.9-.9-1.7-7.8-1.8 1.3 1.6 7.4z"/><path class="st1" d="M250.7 17.9l-81.5 62.2.9 4.2 82.5-57.6z"/><path class="st1" d="M250.2 19.1L170 80.4l.6 2.7 81.2-56.7-1.6-7.3zm-81.4 60.4l81.4-62.2c.1-.1.2-.1.3-.1.4-.1.8.2.8.5l1.9 8.8c.1.3 0 .6-.3.7l-82.4 57.5c-.1.1-.2.1-.3.1-.4.1-.8-.2-.8-.5l-.9-4.2c0-.1.1-.4.3-.6z"/><path class="st0" d="M261.3 70.1l-87.4 34.5.3 1.3 87.6-33.2z"/><path class="st1" d="M260.8 71.1l-78.9 31.2 79.2-30-.3-1.2zm-87.2 32.8L261 69.4h.1c.4-.1.7.2.8.6l.5 2.6c.1.3-.1.7-.4.8l-87.6 33.2h-.1c-.4.1-.8-.2-.8-.5l-.3-1.3c-.1-.4.1-.7.4-.9zM268.9 30.6l-16.1-4.2-1.9-8.8 16 3.7z"/><path class="st1" d="M268.7 31.3l-16-4.3c-.3-.1-.5-.3-.5-.5l-1.9-8.8c-.1-.4.2-.8.5-.8h.3l15.9 3.7c.3.1.5.3.5.6l2 9.3c.1.4-.2.8-.5.8-.1.1-.2 0-.3 0zm-15.3-5.5l14.5 3.9-1.7-7.8-14.4-3.4 1.6 7.3zM303.7 37.2l-16.6-3.7-1.2-6.2 16.2 3z"/><path class="st1" d="M303.5 37.9l-16.6-3.7c-.3-.1-.5-.3-.5-.6l-1.2-6.2c-.1-.4.2-.8.6-.8h.3l16.2 3.1c.3.1.5.3.6.5l1.6 6.8c.1.4-.1.8-.5.8-.3.1-.4.1-.5.1zm-15.8-5l15.1 3.4-1.2-5.3-14.8-2.8.9 4.7z"/><path class="st0" d="M309.3 67.4l-15.7.8-.4-2.5 15.4-.9z"/><path class="st1" d="M309.3 68.1l-15.7.8c-.4 0-.7-.3-.7-.6l-.4-2.5c-.1-.4.2-.7.6-.8h.1l15.4-.9c.3 0 .7.2.7.6l.7 2.5c.1.4-.1.8-.5.9h-.2zm-15.1-.6l14.2-.8-.3-1.2-14.1.9.2 1.1z"/><path class="st0" d="M276.5 69.8l-14.7 2.6-.5-2.5 14.8-2.1z"/><path class="st1" d="M276.6 70.5l-14.7 2.6c-.4.1-.7-.2-.8-.6l-.5-2.5c-.1-.4.2-.7.6-.8h.1l14.8-2.1c.4-.1.7.2.8.6l.4 2c0 .3-.3.7-.7.8zm-14.3 1.1l13.3-2.3-.1-.6-13.4 1.9.2 1z"/><path class="st5" d="M293.9 97.1l-11.3 2.5-17.5-90.9 8.3-7.5z"/><path class="st1" d="M294.1 97.8l-11.3 2.5c-.4.1-.8-.2-.8-.5l-17.6-91c0-.3 0-.5.2-.7l8.3-7.5c.3-.3.7-.2 1 .1.1.1.1.2.2.3l20.5 96c.1.4-.1.7-.5.8zm-10.9.9l10-2.2-20.2-94-7.2 6.5 17.4 89.7z"/><path class="st1" d="M299.8 96l-5.8.7-20.1-96 7.3 4.6z"/><path class="st1" d="M299.8 96.7l-5.8.7c-.4 0-.7-.2-.8-.6L273.1.8c-.1-.4.2-.8.5-.8.2 0 .4 0 .5.1l7.4 4.6c.2.1.3.3.3.5l18.5 90.7c.2.4 0 .7-.5.8.1 0 .1 0 0 0zm-5.3-.8l4.4-.5-18.3-89.7-5.7-3.6 19.6 93.8zM329.8 88.2l-5.4 1.2-15.7-75.3 7.1 4.7z"/><path class="st1" d="M329.9 88.9l-5.4 1.2c-.4.1-.8-.2-.8-.5L308 14.3c-.1-.4.2-.8.5-.8.2 0 .4 0 .6.1l7.1 4.6c.2.1.3.3.3.4l14 69.4c0 .4-.2.8-.6.9zm-5-.4l4-.9-13.8-68.4-5.4-3.6 15.2 72.9z"/><path class="st5" d="M324.2 89.7l-9.4 2-15.3-70.8 9.2-6.2z"/><path class="st1" d="M324.3 90.4l-9.4 2c-.4.1-.8-.2-.8-.5L298.8 21c-.1-.3.1-.6.3-.8l9.2-6.2c.3-.2.8-.1 1 .2.1.1.1.2.1.3l15.5 75c0 .4-.2.8-.6.9zm-8.9.5l8-1.7-15.1-73.3-8 5.3 15.1 69.7z"/><path class="st6" d="M251.5 17.4l21.9-16.2 3.8 17.1L294 96.7l-11.4 2.9-15.7-78.3zM286.5 26.8l22.2-12.5 3.2 16 11.8 59-8.9 2.1L302 29.7z"/><path class="st1" d="M286.1 26.1l22.2-12.4c.3-.2.8-.1 1 .3 0 .1.1.2.1.2l3.2 15.9 11.7 59c.1.4-.2.7-.5.8l-8.9 2.1c-.4.1-.8-.1-.8-.5v-.1l-12.7-61.2-15-2.8c-.4-.1-.6-.4-.6-.8 0-.2.2-.4.3-.5zm22.1-10.7l-19.6 11 13.6 2.6c.3.1.5.3.6.5l12.6 61 7.5-1.8-11.6-58.3-3.1-15z"/><path class="st0" d="M276.1 70.2L184.9 104l-10.8 2.3 87.7-33.6z"/><path class="st1" d="M276.3 70.8l-91.2 33.8h-.1l-10.8 2.3c-.4.1-.8-.2-.8-.5-.1-.3.1-.7.4-.8L261.5 72h.2l14.3-2.5c.4-.1.7.2.8.6 0 .3-.2.6-.5.7zm-91.6 32.5l83.9-31.1-6.7 1.2-79.1 30.3 1.9-.4z"/><path class="st0" d="M278.3 80.4l-86.2 23.4-3-1.6 87-32z"/><path class="st1" d="M278.5 81.1l-86.2 23.3c-.2.1-.4 0-.5-.1l-2.9-1.6c-.3-.2-.5-.6-.3-1 .1-.2.2-.3.4-.3l86.9-32c.4-.1.8.1.9.4v.1l2.2 10.3c.1.5-.2.8-.5.9zM192.2 103l85.3-23.1-1.9-8.8-84.7 31.2 1.3.7z"/><path class="st0" d="M333.1 96.9l-20.7 4.4-1.8-8.3 20.3-4.9z"/><path class="st2" d="M333.3 97.6l-20.7 4.4c-.4.1-.8-.2-.8-.5l-1.8-8.3c-.1-.4.2-.8.5-.8l20.3-4.9c.4-.1.8.1.8.5l2.2 8.9c.1.2-.1.6-.5.7zm-20.4 2.9l19.3-4.1-1.9-7.5-19 4.6 1.6 7z"/><path class="st0" d="M303.5 104.1l-23.6 5.1-1.7-8.1 22.8-5.5z"/><path class="st2" d="M303.6 104.8l-23.6 5c-.4.1-.8-.2-.8-.5l-1.7-8.1c-.1-.4.2-.8.5-.8l22.8-5.5c.4-.1.7.1.8.5l2.4 8.5c.2.4 0 .8-.4.9zm-23.2 3.6l22.2-4.7-2-7.1-21.6 5.2 1.4 6.6z"/><g><path class="st7" d="M44.9 100.8l-6.4.9 4.1 24.6-8.2 1.1-4.1-24.6-2.4.3-.7-4.2 2.4-.3c-.4-2.7 0-4.8 1.3-6.3s4-2.5 8-3l4-.5.7 4.2-4 .5c-1.6.2-2.2 1.5-1.8 4l6.4-.9.7 4.2zM69 99.7l-8.2 1.1-1.3-8c-.2-1.3-1.1-1.9-2.7-1.7-1.6.2-2.3 1-2 2.3l5.1 30.5-8.2 1.1-6.1-36.7 8.2-1.1.2 1.3c1.4-1.1 3.6-1.8 6.4-2.2 1.7-.2 3.2.1 4.7 1.1s2.4 2.4 2.7 4.2l1.2 8.1zM73.4 115.8l-4-24.3c-.7-4.1 2.5-6.7 9.6-7.6 7.1-1 10.9.6 11.6 4.8l4 24.3c.7 4.3-2.5 6.9-9.5 7.9-7.1.9-11-.8-11.7-5.1zm13-1.7l-4-24.3c-.2-1.3-1.1-1.9-2.7-1.7-1.6.2-2.3 1-2 2.3l4 24.3c.2 1.3 1.1 1.9 2.7 1.7 1.5-.2 2.2-1 2-2.3zM119.1 116l-8.2 1.1-5.1-30.5c-.2-1.3-1.1-1.9-2.7-1.7-1.6.2-2.3 1-2 2.3l5.1 30.5-8.2 1.1-6.1-36.7L100 81l.2 1.3c1.4-1.1 3.6-1.8 6.4-2.2 1.7-.2 3.2.1 4.7 1.1s2.4 2.4 2.7 4.2l5.1 30.6zM132.9 84.6l-6.4.9-1.3-7.9-8.2 1.1 1.3 7.9-2.4.3.7 4.2 2.4-.3 2.8 16.8c.4 2.7 1.5 4.6 3.3 5.7 1.8 1.1 4.6 1.3 8.6.8l4-.5-.7-4.2-4 .5c-1.6.2-2.6-.9-3-3.3l-2.8-16.8 6.4-.9-.7-4.3zM156.8 111.4l-8.1 1.1-6.1-36.7 8.1-1.1 6.1 36.7zm-15-39.5c.1.9.7 1.6 1.6 2.2.9.6 1.9.8 3.1.6 1.1-.2 2-.6 2.7-1.4.7-.8 1-1.6.8-2.6-.2-.9-.7-1.7-1.6-2.2-.9-.5-1.9-.7-3-.6-1.1.2-2.1.6-2.8 1.4-.6.8-.9 1.7-.8 2.6zM180.5 108.2l-8.2 1.1-5.1-30.5c-.2-1.3-1.1-1.9-2.7-1.7-1.6.2-2.3 1-2 2.3l5.1 30.5-8.2 1.1-6.1-36.7 8.2-1.1.2 1.3c1.4-1.1 3.6-1.8 6.4-2.2 1.7-.2 3.2.1 4.7 1.1s2.4 2.4 2.7 4.2l5 30.6z"/></g><path class="st7" d="M23.9 143.3C16.7 169.1 9.4 195 2.4 220.5c-5.4 19.6-2.3 21 16.4 21l59-.1c3.3.3 5.8 1.4 7.1 3.5 2.3 3.8 0 10-1.1 14.1-.9 3.5-1.8 7-2.8 10.6-3.3 12.7 1.5 9.5 9.8 3.1 7.6-5.9 15.1-11.8 22.7-17.7 4.8-3.7 11-9.4 16.3-11.9 1.4-.7 2.9-1.2 4.3-1.6l212.2-.2c14.1 0 27.6 1.4 23.9-16.7-8.2-39.8-16.4-84.1-24.5-123.5-5.5-26.6-9.5-23.6-34.6-19.6-87.2 14-174.4 28.1-261.6 42.1-15.2 2.2-21.2 4.1-25.6 19.7z"/><g><path class="st8" d="M67.9 209l-44.2-16.4-.9-8.9 39.8-25.5 1.1 10.1L35 187l31.8 11.8zM69.9 193.4l15-1.5 1.3 12.9c.3 2.8 1.9 4.1 4.8 3.8 2.9-.3 4.2-1.8 3.9-4.7-.7-7-4.4-13.6-11-20.1-6.6-6.4-11-10.6-13.2-12.4-2.2-1.8-3.5-4.4-3.8-7.9l-1-9.3c-.9-8.8 5.1-13.8 17.9-15.1 12.9-1.3 19.7 2.5 20.6 11.3l1.3 12.8-15 1.5-1.3-12.8c-.3-2.8-1.9-4.1-4.7-3.8-2.9.3-4.2 1.8-3.9 4.7.4 5.2 1.4 8.5 3.1 10 1.7 1.5 6.2 5.8 13.4 13s11.1 12.9 11.5 17.3l1 9.4c.9 9.2-5 14.4-17.9 15.6-12.9 1.3-19.8-2.7-20.7-11.9l-1.3-12.8zM153.7 211.6l-15 1.5-.3-2.5c-.9 2.4-4.3 3.9-10.2 4.5-8.7.8-13.4-2-14.1-8.6l-2.6-25.1c-.3-2.9.5-5.5 2.2-7.9 1.8-2.4 5.8-5.5 12.2-9.4 4.5-2.3 6.8-4.1 7.1-5.2l-1.1-10.8c-.3-2.8-1.9-4.1-4.8-3.8-2.9.3-4.2 1.8-3.9 4.7l1.2 12-15 1.5-1.2-12c-.9-8.8 5.1-13.8 17.9-15.1 12.9-1.3 19.8 2.5 20.7 11.3l6.9 64.9zm-16.3-11.8l-2.9-28.6c-5.7 1.5-8.4 3.4-8.2 5.8l2.4 23.6c.3 2.8 1.9 4.1 4.8 3.8 2.9-.2 4.2-1.7 3.9-4.6zM219.8 204.6l-15 1.5-6.7-65.1c-.3-2.8-1.9-4.1-4.8-3.8-2.9.3-4.2 1.8-3.9 4.7l6.7 65.1-15 1.5-6.7-65.1c-.3-2.8-1.9-4.1-4.8-3.8-2.9.3-4.2 1.8-3.9 4.7l6.7 65.1-15 1.5-8-78.3 15-1.5.3 2.8c2.7-2.2 6.6-3.5 11.7-4 3.9-.4 7.9.8 12.1 3.4 2.6-3.3 6-5.1 10.4-5.6 2.9-.3 5.8.3 8.8 1.7 3 1.4 4.8 4.8 5.3 10.3l6.8 64.9zM231.7 126.5l-.2-2.2-15 1.5 8 78.3 15-1.5-1.1-10.8c3.2 1.3 7.3 1.8 12.2 1.3 3-.3 5.6-1.3 7.8-3.2 2.2-1.8 3-5.5 2.4-11.2l-4.5-43.5c-.6-5.6-2.4-9.1-5.4-10.7-3-1.5-6.7-2.1-10.9-1.7-3.2.4-6 1.6-8.3 3.7zm9.7 10.1l4.5 43.5c.3 2.8-1 4.4-3.9 4.7-2.9.3-4.5-1-4.8-3.8l-4.5-43.5c-.3-2.8 1-4.4 3.9-4.7 3-.3 4.5 1 4.8 3.8zM305.6 196.7l-15 1.5-.3-2.5c-.9 2.4-4.3 3.9-10.2 4.5-8.7.9-13.4-2-14.1-8.6l-2.6-25.1c-.3-2.9.5-5.5 2.2-7.9 1.8-2.4 5.8-5.5 12.2-9.4 4.5-2.3 6.8-4.1 7.1-5.2l-1.1-10.8c-.3-2.8-1.9-4.1-4.8-3.8-2.9.3-4.2 1.8-3.9 4.7l1.2 12-15 1.5-1.2-12c-.9-8.8 5.1-13.8 17.9-15.1 12.9-1.3 19.8 2.5 20.7 11.3l6.9 64.9zM289.3 185l-2.9-28.6c-5.7 1.5-8.4 3.4-8.2 5.8l2.4 23.6c.3 2.8 1.9 4.1 4.8 3.8 2.9-.2 4.2-1.8 3.9-4.6zM308.9 185.5l39.9-24.6-.9-9-44.2-17.3 1 10.2 31.9 12.7-28.8 17.8z"/></g></svg>